{"glyphs":{"0":{"ha":819,"x_min":0,"x_max":0,"o":"m 167 486 b 410 907 167 726 229 907 b 653 486 590 907 653 726 b 410 65 653 246 590 65 b 167 486 229 65 167 246 z m 83 486 b 410 -14 83 199 171 -14 b 736 486 649 -14 736 199 b 410 986 736 774 649 986 b 83 486 171 986 83 774 z "},"1":{"ha":521,"x_min":0,"x_max":0,"o":"m 76 758 l 264 863 l 264 0 l 347 0 l 347 972 l 292 972 l 76 842 z "},"2":{"ha":722,"x_min":0,"x_max":0,"o":"m 138 738 b 336 907 161 839 232 907 b 528 710 447 907 528 824 b 428 499 528 653 507 593 l 56 51 l 56 0 l 625 0 l 625 79 l 185 79 l 497 457 b 611 713 578 554 611 626 b 333 986 611 869 496 986 b 63 764 192 986 90 888 z "},"3":{"ha":761,"x_min":0,"x_max":0,"o":"m 56 139 b 347 -14 114 43 219 -14 b 671 313 539 -14 671 138 b 368 635 671 483 543 622 l 615 921 l 615 972 l 101 972 l 101 893 l 488 893 l 231 597 l 231 546 b 329 560 243 550 276 560 b 588 313 476 560 588 454 b 347 65 588 181 493 65 b 122 182 246 65 167 111 z "},"4":{"ha":792,"x_min":0,"x_max":0,"o":"m 514 0 l 597 0 l 597 250 l 757 250 l 757 329 l 597 329 l 597 972 l 542 972 l 21 301 l 21 250 l 514 250 z m 144 329 l 514 806 l 514 329 z "},"5":{"ha":757,"x_min":0,"x_max":0,"o":"m 175 972 l 108 500 l 164 492 b 336 560 208 532 269 560 b 583 313 476 560 583 449 b 342 65 583 179 483 65 b 135 174 254 65 179 110 l 69 129 b 343 -14 128 43 229 -14 b 667 313 526 -14 667 133 b 340 639 667 493 525 639 b 204 607 290 639 244 626 l 244 893 l 633 893 l 633 972 z "},"6":{"ha":799,"x_min":0,"x_max":0,"o":"m 538 972 l 443 972 l 144 511 b 76 301 111 460 76 389 b 399 -14 76 129 214 -12 b 722 307 583 -14 722 125 b 404 628 722 483 590 628 b 304 613 367 628 333 622 z m 399 549 b 639 307 539 549 639 444 b 401 65 639 171 536 65 b 160 307 261 65 160 172 b 219 479 160 382 193 436 b 399 549 267 522 329 549 z "},"7":{"ha":722,"x_min":0,"x_max":0,"o":"m 69 893 l 567 893 l 139 0 l 226 0 l 667 921 l 667 972 l 69 972 z "},"8":{"ha":792,"x_min":0,"x_max":0,"o":"m 396 -14 b 715 282 579 -14 715 111 b 547 546 715 396 650 496 b 653 742 613 589 653 660 b 396 986 653 876 544 986 b 139 742 247 986 139 876 b 244 546 139 660 179 589 b 76 282 142 496 76 396 b 396 -14 76 111 213 -14 z m 396 907 b 569 742 497 907 569 833 b 396 578 569 651 499 581 b 222 742 293 581 222 651 b 396 907 222 833 294 907 z m 396 65 b 160 282 257 65 160 163 b 396 499 160 401 257 499 b 632 282 535 499 632 401 b 396 65 632 163 535 65 z "},"9":{"ha":799,"x_min":0,"x_max":0,"o":"m 261 0 l 356 0 l 654 461 b 722 671 688 513 722 583 b 400 986 722 843 585 985 b 76 665 215 986 76 847 b 394 344 76 489 208 344 b 494 360 432 344 465 350 z m 400 424 b 160 665 260 424 160 528 b 397 907 160 801 263 907 b 639 665 538 907 639 800 b 579 493 639 590 606 536 b 400 424 532 450 469 424 z "}," ":{"ha":375,"x_min":0,"x_max":0,"o":""},"F":{"ha":681,"x_min":0,"x_max":0,"o":"m 653 893 l 653 972 l 125 972 l 125 0 l 208 0 l 208 497 l 556 497 l 556 576 l 208 576 l 208 893 z "},"G":{"ha":1014,"x_min":0,"x_max":0,"o":"m 840 188 b 544 65 769 114 663 65 b 132 486 303 65 132 250 b 536 907 132 719 303 907 b 832 781 657 907 764 856 l 889 838 b 536 986 804 931 675 986 b 49 486 256 986 49 767 b 549 -14 49 199 258 -14 b 924 167 699 -14 840 60 l 924 576 l 521 576 l 521 497 l 840 497 z "},"H":{"ha":1042,"x_min":0,"x_max":0,"o":"m 833 0 l 917 0 l 917 972 l 833 972 l 833 576 l 208 576 l 208 972 l 125 972 l 125 0 l 208 0 l 208 497 l 833 497 z "},"I":{"ha":333,"x_min":0,"x_max":0,"o":"m 125 0 l 208 0 l 208 972 l 125 972 z "},"J":{"ha":604,"x_min":0,"x_max":0,"o":"m 0 142 b 236 -14 39 50 131 -14 b 450 99 325 -14 404 29 b 493 271 478 139 493 190 l 493 972 l 410 972 l 410 267 b 386 149 410 207 401 175 b 236 65 356 97 300 65 b 75 172 164 65 101 110 z "},"K":{"ha":847,"x_min":0,"x_max":0,"o":"m 819 0 l 297 513 l 778 972 l 667 972 l 208 536 l 208 972 l 125 972 l 125 0 l 208 0 l 208 492 l 708 0 z "},"L":{"ha":694,"x_min":0,"x_max":0,"o":"m 208 972 l 125 972 l 125 0 l 667 0 l 667 79 l 208 79 z "},"M":{"ha":1158,"x_min":0,"x_max":0,"o":"m 950 769 l 950 0 l 1033 0 l 1033 972 l 978 972 l 579 304 l 181 972 l 125 972 l 125 0 l 208 0 l 208 769 l 551 194 l 607 194 z "},"N":{"ha":1042,"x_min":0,"x_max":0,"o":"m 125 0 l 208 0 l 208 810 l 861 0 l 917 0 l 917 972 l 833 972 l 833 163 l 181 972 l 125 972 z "},"O":{"ha":1064,"x_min":0,"x_max":0,"o":"m 49 486 b 532 -14 49 203 257 -14 b 1015 486 807 -14 1015 203 b 532 986 1015 769 807 986 b 49 486 257 986 49 769 z m 132 486 b 532 907 132 717 297 907 b 932 486 767 907 932 717 b 532 65 932 256 767 65 b 132 486 297 65 132 256 z "},"P":{"ha":806,"x_min":0,"x_max":0,"o":"m 485 469 b 675 528 574 469 632 492 b 764 721 729 574 764 643 b 675 914 764 799 729 868 b 485 972 632 950 574 972 l 125 972 l 125 0 l 208 0 l 208 469 z m 208 549 l 208 893 l 481 893 b 631 842 556 893 599 874 b 681 721 661 811 681 768 b 631 600 681 674 661 631 b 481 549 599 568 556 549 z "},"Q":{"ha":1071,"x_min":0,"x_max":0,"o":"m 49 486 b 532 -14 49 203 257 -14 b 846 101 654 -14 763 29 l 938 0 l 1043 0 l 900 156 b 1015 486 972 243 1015 358 b 532 986 1015 769 807 986 b 49 486 257 986 49 769 z m 543 436 l 792 161 b 532 65 724 101 635 65 b 132 486 297 65 132 256 b 532 907 132 717 297 907 b 932 486 767 907 932 717 b 844 218 932 385 900 290 l 600 486 z "},"R":{"ha":854,"x_min":0,"x_max":0,"o":"m 847 0 l 472 497 b 646 560 553 500 606 522 b 722 735 693 603 722 665 b 646 910 722 804 693 867 b 457 972 603 949 546 972 l 125 972 l 125 0 l 208 0 l 208 497 l 372 497 l 747 0 z m 208 576 l 208 893 l 453 893 b 588 851 522 893 560 878 b 639 735 619 822 639 781 b 588 618 639 689 619 647 b 453 576 560 592 522 576 z "},"S":{"ha":717,"x_min":0,"x_max":0,"o":"m 49 150 b 371 -14 132 40 242 -14 b 654 247 529 -14 654 93 b 507 482 654 360 588 432 b 172 735 368 568 172 588 b 368 907 172 840 260 907 b 561 828 449 907 504 878 l 614 889 b 365 986 569 928 490 986 b 89 731 210 986 89 882 b 221 531 89 632 149 575 b 571 247 363 443 571 424 b 371 65 571 135 468 65 b 110 204 243 65 167 131 z "},"T":{"ha":694,"x_min":0,"x_max":0,"o":"m 28 972 l 28 893 l 306 893 l 306 0 l 389 0 l 389 893 l 667 893 l 667 972 z "},"U":{"ha":1000,"x_min":0,"x_max":0,"o":"m 500 -14 b 832 163 640 -14 764 56 b 889 389 868 219 889 286 l 889 972 l 806 972 l 806 385 b 763 204 806 300 790 249 b 500 65 708 119 611 65 b 238 204 389 65 292 119 b 194 385 210 249 194 300 l 194 972 l 111 972 l 111 389 b 168 163 111 286 132 219 b 500 -14 236 56 360 -14 z "},"V":{"ha":875,"x_min":0,"x_max":0,"o":"m 775 972 l 438 139 l 100 972 l 14 972 l 410 0 l 465 0 l 861 972 z "},"W":{"ha":1308,"x_min":0,"x_max":0,"o":"m 626 972 l 367 168 l 106 972 l 21 972 l 340 0 l 396 0 l 654 799 l 913 0 l 968 0 l 1288 972 l 1203 972 l 942 168 l 682 972 z "},"X":{"ha":847,"x_min":0,"x_max":0,"o":"m 122 0 l 424 471 l 725 0 l 819 0 l 478 533 l 758 972 l 665 972 l 424 596 l 182 972 l 89 972 l 369 533 l 28 0 z "},"Y":{"ha":778,"x_min":0,"x_max":0,"o":"m 764 972 l 669 972 l 389 538 l 108 972 l 14 972 l 347 457 l 347 0 l 431 0 l 431 457 z "},"Z":{"ha":813,"x_min":0,"x_max":0,"o":"m 56 51 l 56 0 l 764 0 l 764 79 l 171 79 l 736 921 l 736 972 l 97 972 l 97 893 l 624 893 z "},"[":{"ha":590,"x_min":0,"x_max":0,"o":"m 222 -278 l 535 -278 l 535 -203 l 301 -203 l 301 897 l 535 897 l 535 972 l 222 972 z "},"]":{"ha":590,"x_min":0,"x_max":0,"o":"m 368 972 l 56 972 l 56 897 l 289 897 l 289 -203 l 56 -203 l 56 -278 l 368 -278 z "},"Æ":{"ha":1208,"x_min":0,"x_max":0,"o":"m 1139 893 l 1139 972 l 553 972 l -28 0 l 64 0 l 240 293 l 611 293 l 611 0 l 1153 0 l 1153 79 l 694 79 l 694 497 l 1042 497 l 1042 576 l 694 576 l 694 893 z m 288 372 l 611 917 l 611 372 z "},"Œ":{"ha":1529,"x_min":0,"x_max":0,"o":"m 1460 893 l 1460 972 l 932 972 l 932 769 b 532 986 849 900 701 986 b 49 486 257 986 49 769 b 532 -14 49 203 257 -14 b 932 201 701 -14 849 71 l 932 0 l 1474 0 l 1474 79 l 1015 79 l 1015 497 l 1363 497 l 1363 576 l 1015 576 l 1015 893 z m 532 65 b 132 486 297 65 132 256 b 532 907 132 717 297 907 b 932 486 767 907 932 717 b 532 65 932 256 767 65 z "},"\\":{"ha":549,"x_min":0,"x_max":0,"o":"m 542 0 l 88 972 l 7 972 l 461 0 z "},"/":{"ha":549,"x_min":0,"x_max":0,"o":"m 88 0 l 542 972 l 461 972 l 7 0 z "},"|":{"ha":246,"x_min":0,"x_max":0,"o":"m 83 -278 l 163 -278 l 163 972 l 83 972 z "},"a":{"ha":808,"x_min":0,"x_max":0,"o":"m 690 0 l 690 633 l 614 633 l 614 546 b 382 647 557 610 474 647 b 181 576 306 647 233 619 b 63 317 108 515 63 422 b 197 46 63 203 114 104 b 386 -14 260 1 326 -14 b 614 93 485 -14 567 29 l 614 0 z m 611 200 b 385 61 561 114 478 61 b 242 108 331 61 282 81 b 142 317 181 151 142 229 b 231 518 142 399 175 472 b 383 572 275 554 331 572 b 611 444 500 572 583 492 z "},"b":{"ha":808,"x_min":0,"x_max":0,"o":"m 197 444 b 425 572 225 492 308 572 b 578 518 478 572 533 554 b 667 317 633 472 667 399 b 567 108 667 229 628 151 b 424 61 526 81 478 61 b 197 200 331 61 247 114 z m 422 -14 b 611 46 482 -14 549 1 b 746 317 694 104 746 203 b 628 576 746 422 700 515 b 426 647 575 619 503 647 b 197 549 339 647 257 613 l 197 986 l 118 986 l 118 0 l 194 0 l 194 93 b 422 -14 242 29 324 -14 z "},"c":{"ha":701,"x_min":0,"x_max":0,"o":"m 603 149 b 408 61 549 92 482 61 b 149 317 260 61 149 175 b 397 572 149 461 264 572 b 589 492 478 572 542 538 l 639 549 b 397 647 582 606 503 647 b 69 317 207 647 69 494 b 410 -14 69 114 233 -14 b 660 96 507 -14 597 26 z "},"d":{"ha":808,"x_min":0,"x_max":0,"o":"m 611 200 b 385 61 561 114 478 61 b 242 108 331 61 282 81 b 142 317 181 151 142 229 b 231 518 142 399 175 472 b 383 572 275 554 331 572 b 611 444 500 572 583 492 z m 386 -14 b 614 93 485 -14 567 29 l 614 0 l 690 0 l 690 986 l 611 986 l 611 549 b 382 647 551 613 469 647 b 181 576 306 647 233 619 b 63 317 108 515 63 422 b 197 46 63 203 114 104 b 386 -14 260 1 326 -14 z "},"e":{"ha":722,"x_min":0,"x_max":0,"o":"m 365 572 b 578 382 475 572 561 493 l 146 382 b 365 572 169 492 253 572 z m 583 156 b 381 61 533 94 464 61 b 142 310 235 61 147 175 l 658 310 b 660 338 660 322 660 332 b 365 647 660 514 535 647 b 63 317 186 647 63 499 b 381 -14 63 119 203 -14 b 639 103 501 -14 592 43 z "},"f":{"ha":500,"x_min":0,"x_max":0,"o":"m 472 993 b 411 1000 453 997 432 1000 b 231 922 339 1000 274 974 b 178 729 197 882 178 826 l 178 633 l 14 633 l 14 558 l 178 558 l 178 0 l 257 0 l 257 558 l 472 558 l 472 633 l 257 633 l 257 733 b 286 865 257 808 268 839 b 410 925 314 906 358 925 b 457 919 426 925 442 924 z "},"g":{"ha":808,"x_min":0,"x_max":0,"o":"m 690 3 l 690 633 l 614 633 l 614 546 b 382 647 557 610 474 647 b 181 576 306 647 233 619 b 63 317 108 515 63 422 b 197 46 63 203 114 104 b 386 -14 260 1 326 -14 b 611 90 485 -14 564 29 l 611 0 b 586 -164 611 -79 606 -125 b 382 -272 554 -226 489 -272 b 156 -150 281 -272 203 -225 l 93 -196 b 381 -347 157 -292 260 -347 b 656 -201 519 -347 610 -287 b 690 3 682 -151 690 -90 z m 611 200 b 385 61 561 114 478 61 b 242 108 331 61 282 81 b 142 317 181 151 142 229 b 231 518 142 399 175 472 b 383 572 275 554 331 572 b 611 444 500 572 583 492 z "},"h":{"ha":801,"x_min":0,"x_max":0,"o":"m 197 986 l 118 986 l 118 0 l 197 0 l 197 440 b 417 572 246 524 325 572 b 582 488 486 572 546 540 b 618 332 604 456 618 415 l 618 0 l 697 0 l 697 338 b 643 540 697 442 678 494 b 418 647 592 610 510 647 b 197 549 333 647 247 615 z "},"i":{"ha":315,"x_min":0,"x_max":0,"o":"m 118 0 l 197 0 l 197 633 l 118 633 z m 88 853 b 157 783 88 814 118 783 b 228 853 196 783 228 814 b 157 924 228 892 196 924 b 88 853 118 924 88 892 z "},"j":{"ha":375,"x_min":0,"x_max":0,"o":"m -14 -343 b 32 -347 -3 -346 17 -347 b 207 -271 101 -347 167 -319 b 257 -81 240 -231 257 -179 l 257 633 l 178 633 l 178 -81 b 151 -212 178 -156 169 -186 b 28 -272 125 -251 78 -272 b -7 -269 19 -272 7 -272 z m 147 853 b 217 783 147 814 178 783 b 288 853 256 783 288 814 b 217 924 288 892 256 924 b 147 853 178 924 147 892 z "},"k":{"ha":689,"x_min":0,"x_max":0,"o":"m 668 0 l 292 349 l 639 633 l 521 633 l 197 369 l 197 986 l 118 986 l 118 0 l 197 0 l 197 335 l 557 0 z "},"l":{"ha":315,"x_min":0,"x_max":0,"o":"m 118 0 l 197 0 l 197 986 l 118 986 z "},"m":{"ha":1274,"x_min":0,"x_max":0,"o":"m 194 633 l 118 633 l 118 0 l 197 0 l 197 440 b 408 572 239 519 322 572 b 568 489 478 572 535 539 b 604 325 590 456 604 414 l 604 0 l 683 0 l 683 335 b 676 425 683 369 681 400 b 894 572 715 501 793 572 b 1054 489 964 572 1021 539 b 1090 325 1076 456 1090 414 l 1090 0 l 1169 0 l 1169 335 b 1132 514 1169 419 1156 471 b 894 647 1086 594 999 647 b 646 513 768 647 690 576 b 408 647 601 594 514 647 b 194 547 321 647 240 607 z "},"n":{"ha":801,"x_min":0,"x_max":0,"o":"m 194 633 l 118 633 l 118 0 l 197 0 l 197 440 b 417 572 246 524 325 572 b 582 488 486 572 546 540 b 618 332 604 456 618 415 l 618 0 l 697 0 l 697 338 b 643 540 697 442 678 494 b 418 647 592 610 510 647 b 194 544 329 647 246 613 z "},"o":{"ha":778,"x_min":0,"x_max":0,"o":"m 636 317 b 389 61 636 175 532 61 b 142 317 246 61 142 175 b 389 572 142 458 246 572 b 636 317 532 572 636 458 z m 715 317 b 389 647 715 499 578 647 b 63 317 200 647 63 499 b 389 -14 63 135 200 -14 b 715 317 578 -14 715 135 z "},"q":{"ha":808,"x_min":0,"x_max":0,"o":"m 690 -333 l 690 633 l 614 633 l 614 546 b 382 647 557 610 474 647 b 181 576 306 647 233 619 b 63 317 108 515 63 422 b 197 46 63 203 114 104 b 386 -14 260 1 326 -14 b 611 90 485 -14 564 29 l 611 -333 z m 611 200 b 385 61 561 114 478 61 b 242 108 331 61 282 81 b 142 317 181 151 142 229 b 231 518 142 399 175 472 b 383 572 275 554 331 572 b 611 444 500 572 583 492 z "},"p":{"ha":808,"x_min":0,"x_max":0,"o":"m 197 -333 l 197 90 b 422 -14 244 29 324 -14 b 611 46 482 -14 549 1 b 746 317 694 104 746 203 b 628 576 746 422 700 515 b 426 647 575 619 503 647 b 194 546 335 647 251 610 l 194 633 l 118 633 l 118 -333 z m 197 444 b 425 572 225 492 308 572 b 578 518 478 572 533 554 b 667 317 633 472 667 399 b 567 108 667 229 628 151 b 424 61 526 81 478 61 b 197 200 331 61 247 114 z "},"r":{"ha":486,"x_min":0,"x_max":0,"o":"m 444 644 b 397 647 436 646 408 647 b 197 550 299 647 226 594 l 197 633 l 118 633 l 118 0 l 197 0 l 197 432 b 396 572 231 514 310 572 b 433 571 400 572 425 572 z "},"s":{"ha":590,"x_min":0,"x_max":0,"o":"m 56 76 b 301 -14 111 25 196 -14 b 521 176 421 -14 521 58 b 156 464 521 399 156 324 b 296 572 156 538 229 572 b 454 521 361 572 400 556 l 496 586 b 292 647 449 618 378 647 b 76 463 185 647 76 578 b 442 172 76 246 442 335 b 296 61 442 106 375 61 b 104 138 225 61 158 92 z "},"t":{"ha":556,"x_min":0,"x_max":0,"o":"m 479 633 l 264 633 l 264 806 l 185 806 l 185 633 l 7 633 l 7 558 l 185 558 l 185 214 b 228 58 185 139 200 93 b 397 -14 271 4 339 -14 b 479 -3 422 -14 458 -10 l 465 69 b 397 61 442 63 415 61 b 292 106 350 61 314 78 b 264 211 275 126 264 154 l 264 558 l 479 558 z "},"u":{"ha":788,"x_min":0,"x_max":0,"o":"m 593 0 l 669 0 l 669 633 l 590 633 l 590 193 b 379 61 549 114 465 61 b 219 144 310 61 253 94 b 183 308 197 178 183 219 l 183 633 l 104 633 l 104 296 b 142 117 104 211 118 160 b 379 -14 188 36 275 -14 b 593 86 467 -14 549 28 z "},"v":{"ha":681,"x_min":0,"x_max":0,"o":"m 367 0 l 660 633 l 574 633 l 340 128 l 107 633 l 21 633 l 315 0 z "},"w":{"ha":1058,"x_min":0,"x_max":0,"o":"m 529 504 l 735 0 l 786 0 l 1031 633 l 949 633 l 757 136 l 554 633 l 504 633 l 301 136 l 110 633 l 28 633 l 272 0 l 324 0 z "},"x":{"ha":642,"x_min":0,"x_max":0,"o":"m 528 0 l 621 0 l 376 340 l 586 633 l 493 633 l 321 393 l 149 633 l 56 633 l 265 340 l 21 0 l 114 0 l 321 288 z "},"y":{"ha":676,"x_min":0,"x_max":0,"o":"m 217 -333 l 656 633 l 571 633 l 347 142 l 110 633 l 21 633 l 307 51 l 133 -333 z "},"z":{"ha":653,"x_min":0,"x_max":0,"o":"m 56 47 l 56 0 l 611 0 l 611 75 l 174 75 l 597 586 l 597 633 l 90 633 l 90 558 l 478 558 z "},"Ä":{"ha":908,"x_min":0,"x_max":0,"o":"m 497 1117 b 567 1047 497 1078 528 1047 b 638 1117 606 1047 638 1078 b 567 1188 638 1156 606 1188 b 497 1117 528 1188 497 1156 z m 271 1117 b 340 1047 271 1078 301 1047 b 411 1117 379 1047 411 1078 b 340 1188 411 1156 379 1188 b 271 1117 301 1188 271 1156 z m 426 972 l 7 0 l 90 0 l 218 293 l 690 293 l 818 0 l 901 0 l 482 972 z m 454 842 l 656 372 l 251 372 z "},"Å":{"ha":908,"x_min":0,"x_max":0,"o":"m 329 1139 b 454 1014 329 1069 385 1014 b 579 1139 524 1014 579 1069 b 454 1264 579 1208 524 1264 b 329 1139 385 1264 329 1208 z m 385 1139 b 454 1208 385 1178 415 1208 b 524 1139 493 1208 524 1178 b 454 1069 524 1100 493 1069 b 385 1139 415 1069 385 1100 z m 426 972 l 7 0 l 90 0 l 218 293 l 690 293 l 818 0 l 901 0 l 482 972 z m 454 842 l 656 372 l 251 372 z "},"Ç":{"ha":951,"x_min":0,"x_max":0,"o":"m 424 -194 l 528 -194 l 557 -14 b 924 165 704 -11 842 60 l 864 218 b 544 65 796 129 678 65 b 132 486 303 65 132 250 b 536 907 132 719 303 907 b 832 781 657 907 764 856 l 889 838 b 536 986 804 931 675 986 b 49 486 256 986 49 767 b 490 -11 49 218 231 15 z "},"Ñ":{"ha":1042,"x_min":0,"x_max":0,"o":"m 125 0 l 208 0 l 208 810 l 861 0 l 917 0 l 917 972 l 833 972 l 833 163 l 181 972 l 125 972 z m 385 1064 b 435 1126 388 1108 406 1126 b 607 1064 488 1126 536 1064 b 710 1179 675 1064 708 1124 l 654 1194 b 604 1132 651 1150 633 1132 b 432 1194 551 1132 503 1194 b 329 1079 364 1194 331 1135 z "},"Ö":{"ha":1064,"x_min":0,"x_max":0,"o":"m 49 486 b 532 -14 49 203 257 -14 b 1015 486 807 -14 1015 203 b 532 986 1015 769 807 986 b 49 486 257 986 49 769 z m 132 486 b 532 907 132 717 297 907 b 932 486 767 907 932 717 b 532 65 932 256 767 65 b 132 486 297 65 132 256 z m 575 1117 b 644 1047 575 1078 606 1047 b 715 1117 683 1047 715 1078 b 644 1188 715 1156 683 1188 b 575 1117 606 1188 575 1156 z m 349 1117 b 418 1047 349 1078 379 1047 b 489 1117 457 1047 489 1078 b 418 1188 489 1156 457 1188 b 349 1117 379 1188 349 1156 z "},"Ü":{"ha":1000,"x_min":0,"x_max":0,"o":"m 500 -14 b 832 163 640 -14 764 56 b 889 389 868 219 889 286 l 889 972 l 806 972 l 806 385 b 763 204 806 300 790 249 b 500 65 708 119 611 65 b 238 204 389 65 292 119 b 194 385 210 249 194 300 l 194 972 l 111 972 l 111 389 b 168 163 111 286 132 219 b 500 -14 236 56 360 -14 z m 543 1117 b 613 1047 543 1078 574 1047 b 683 1117 651 1047 683 1078 b 613 1188 683 1156 651 1188 b 543 1117 574 1188 543 1156 z m 317 1117 b 386 1047 317 1078 347 1047 b 457 1117 425 1047 457 1078 b 386 1188 457 1156 425 1188 b 317 1117 347 1188 317 1156 z "},"á":{"ha":808,"x_min":0,"x_max":0,"o":"m 465 931 l 375 736 l 438 736 l 569 931 z m 690 0 l 690 633 l 614 633 l 614 546 b 382 647 557 610 474 647 b 181 576 306 647 233 619 b 63 317 108 515 63 422 b 197 46 63 203 114 104 b 386 -14 260 1 326 -14 b 614 93 485 -14 567 29 l 614 0 z m 611 200 b 385 61 561 114 478 61 b 242 108 331 61 282 81 b 142 317 181 151 142 229 b 231 518 142 399 175 472 b 383 572 275 554 331 572 b 611 444 500 572 583 492 z "},"à":{"ha":808,"x_min":0,"x_max":0,"o":"m 283 931 l 415 736 l 478 736 l 388 931 z m 690 0 l 690 633 l 614 633 l 614 546 b 382 647 557 610 474 647 b 181 576 306 647 233 619 b 63 317 108 515 63 422 b 197 46 63 203 114 104 b 386 -14 260 1 326 -14 b 614 93 485 -14 567 29 l 614 0 z m 611 200 b 385 61 561 114 478 61 b 242 108 331 61 282 81 b 142 317 181 151 142 229 b 231 518 142 399 175 472 b 383 572 275 554 331 572 b 611 444 500 572 583 492 z "},"â":{"ha":808,"x_min":0,"x_max":0,"o":"m 410 867 l 528 736 l 590 736 l 458 931 l 361 931 l 229 736 l 292 736 z m 690 0 l 690 633 l 614 633 l 614 546 b 382 647 557 610 474 647 b 181 576 306 647 233 619 b 63 317 108 515 63 422 b 197 46 63 203 114 104 b 386 -14 260 1 326 -14 b 614 93 485 -14 567 29 l 614 0 z m 611 200 b 385 61 561 114 478 61 b 242 108 331 61 282 81 b 142 317 181 151 142 229 b 231 518 142 399 175 472 b 383 572 275 554 331 572 b 611 444 500 572 583 492 z "},"ä":{"ha":808,"x_min":0,"x_max":0,"o":"m 449 825 b 518 756 449 786 479 756 b 589 825 557 756 589 786 b 518 896 589 864 557 896 b 449 825 479 896 449 864 z m 222 825 b 292 756 222 786 253 756 b 363 825 331 756 363 786 b 292 896 363 864 331 896 b 222 825 253 896 222 864 z m 690 0 l 690 633 l 614 633 l 614 546 b 382 647 557 610 474 647 b 181 576 306 647 233 619 b 63 317 108 515 63 422 b 197 46 63 203 114 104 b 386 -14 260 1 326 -14 b 614 93 485 -14 567 29 l 614 0 z m 611 200 b 385 61 561 114 478 61 b 242 108 331 61 282 81 b 142 317 181 151 142 229 b 231 518 142 399 175 472 b 383 572 275 554 331 572 b 611 444 500 572 583 492 z "},"ã":{"ha":808,"x_min":0,"x_max":0,"o":"m 264 772 b 314 835 267 817 285 835 b 486 772 367 835 415 772 b 589 888 554 772 588 832 l 533 903 b 483 840 531 858 513 840 b 311 903 431 840 382 903 b 208 788 243 903 210 843 z m 690 0 l 690 633 l 614 633 l 614 546 b 382 647 557 610 474 647 b 181 576 306 647 233 619 b 63 317 108 515 63 422 b 197 46 63 203 114 104 b 386 -14 260 1 326 -14 b 614 93 485 -14 567 29 l 614 0 z m 611 200 b 385 61 561 114 478 61 b 242 108 331 61 282 81 b 142 317 181 151 142 229 b 231 518 142 399 175 472 b 383 572 275 554 331 572 b 611 444 500 572 583 492 z "},"å":{"ha":808,"x_min":0,"x_max":0,"o":"m 281 847 b 406 722 281 778 336 722 b 531 847 475 722 531 778 b 406 972 531 917 475 972 b 281 847 336 972 281 917 z m 336 847 b 406 917 336 886 367 917 b 475 847 444 917 475 886 b 406 778 475 808 444 778 b 336 847 367 778 336 808 z m 690 0 l 690 633 l 614 633 l 614 546 b 382 647 557 610 474 647 b 181 576 306 647 233 619 b 63 317 108 515 63 422 b 197 46 63 203 114 104 b 386 -14 260 1 326 -14 b 614 93 485 -14 567 29 l 614 0 z m 611 200 b 385 61 561 114 478 61 b 242 108 331 61 282 81 b 142 317 181 151 142 229 b 231 518 142 399 175 472 b 383 572 275 554 331 572 b 611 444 500 572 583 492 z "},"é":{"ha":722,"x_min":0,"x_max":0,"o":"m 422 931 l 332 736 l 394 736 l 526 931 z m 365 572 b 578 382 475 572 561 493 l 146 382 b 365 572 169 492 253 572 z m 583 156 b 381 61 533 94 464 61 b 142 310 235 61 147 175 l 658 310 b 660 338 660 322 660 332 b 365 647 660 514 535 647 b 63 317 186 647 63 499 b 381 -14 63 119 203 -14 b 639 103 501 -14 592 43 z "},"è":{"ha":722,"x_min":0,"x_max":0,"o":"m 235 931 l 367 736 l 429 736 l 339 931 z m 365 572 b 578 382 475 572 561 493 l 146 382 b 365 572 169 492 253 572 z m 583 156 b 381 61 533 94 464 61 b 142 310 235 61 147 175 l 658 310 b 660 338 660 322 660 332 b 365 647 660 514 535 647 b 63 317 186 647 63 499 b 381 -14 63 119 203 -14 b 639 103 501 -14 592 43 z "},"ê":{"ha":722,"x_min":0,"x_max":0,"o":"m 381 867 l 499 736 l 561 736 l 429 931 l 332 931 l 200 736 l 263 736 z m 365 572 b 578 382 475 572 561 493 l 146 382 b 365 572 169 492 253 572 z m 583 156 b 381 61 533 94 464 61 b 142 310 235 61 147 175 l 658 310 b 660 338 660 322 660 332 b 365 647 660 514 535 647 b 63 317 186 647 63 499 b 381 -14 63 119 203 -14 b 639 103 501 -14 592 43 z "},"ë":{"ha":722,"x_min":0,"x_max":0,"o":"m 424 825 b 493 756 424 786 454 756 b 564 825 532 756 564 786 b 493 896 564 864 532 896 b 424 825 454 896 424 864 z m 197 825 b 267 756 197 786 228 756 b 338 825 306 756 338 786 b 267 896 338 864 306 896 b 197 825 228 896 197 864 z m 365 572 b 578 382 475 572 561 493 l 146 382 b 365 572 169 492 253 572 z m 583 156 b 381 61 533 94 464 61 b 142 310 235 61 147 175 l 658 310 b 660 338 660 322 660 332 b 365 647 660 514 535 647 b 63 317 186 647 63 499 b 381 -14 63 119 203 -14 b 639 103 501 -14 592 43 z "},"í":{"ha":315,"x_min":0,"x_max":0,"o":"m 118 0 l 197 0 l 197 633 l 118 633 z m 224 931 l 133 736 l 196 736 l 328 931 z "},"ı":{"ha":315,"x_min":0,"x_max":0,"o":"m 118 0 l 197 0 l 197 633 l 118 633 z "},"ì":{"ha":315,"x_min":0,"x_max":0,"o":"m 118 0 l 197 0 l 197 633 l 118 633 z m -12 931 l 119 736 l 182 736 l 92 931 z "},"î":{"ha":315,"x_min":0,"x_max":0,"o":"m 118 0 l 197 0 l 197 633 l 118 633 z m 157 867 l 275 736 l 338 736 l 206 931 l 108 931 l -24 736 l 39 736 z "},"ï":{"ha":315,"x_min":0,"x_max":0,"o":"m 118 0 l 197 0 l 197 633 l 118 633 z m 200 825 b 269 756 200 786 231 756 b 340 825 308 756 340 786 b 269 896 340 864 308 896 b 200 825 231 896 200 864 z m -26 825 b 43 756 -26 786 4 756 b 114 825 82 756 114 786 b 43 896 114 864 82 896 b -26 825 4 896 -26 864 z "},"ñ":{"ha":801,"x_min":0,"x_max":0,"o":"m 276 772 b 326 835 279 817 297 835 b 499 772 379 835 428 772 b 601 888 567 772 600 832 l 546 903 b 496 840 543 858 525 840 b 324 903 443 840 394 903 b 221 788 256 903 222 843 z m 194 633 l 118 633 l 118 0 l 197 0 l 197 440 b 417 572 246 524 325 572 b 582 488 486 572 546 540 b 618 332 604 456 618 415 l 618 0 l 697 0 l 697 338 b 643 540 697 442 678 494 b 418 647 592 610 510 647 b 194 544 329 647 246 613 z "},"ó":{"ha":778,"x_min":0,"x_max":0,"o":"m 636 317 b 389 61 636 175 532 61 b 142 317 246 61 142 175 b 389 572 142 458 246 572 b 636 317 532 572 636 458 z m 715 317 b 389 647 715 499 578 647 b 63 317 200 647 63 499 b 389 -14 63 135 200 -14 b 715 317 578 -14 715 135 z m 453 931 l 363 736 l 425 736 l 557 931 z "},"ò":{"ha":778,"x_min":0,"x_max":0,"o":"m 636 317 b 389 61 636 175 532 61 b 142 317 246 61 142 175 b 389 572 142 458 246 572 b 636 317 532 572 636 458 z m 715 317 b 389 647 715 499 578 647 b 63 317 200 647 63 499 b 389 -14 63 135 200 -14 b 715 317 578 -14 715 135 z m 225 931 l 357 736 l 419 736 l 329 931 z "},"ô":{"ha":778,"x_min":0,"x_max":0,"o":"m 636 317 b 389 61 636 175 532 61 b 142 317 246 61 142 175 b 389 572 142 458 246 572 b 636 317 532 572 636 458 z m 715 317 b 389 647 715 499 578 647 b 63 317 200 647 63 499 b 389 -14 63 135 200 -14 b 715 317 578 -14 715 135 z m 389 867 l 507 736 l 569 736 l 438 931 l 340 931 l 208 736 l 271 736 z "},"ö":{"ha":778,"x_min":0,"x_max":0,"o":"m 636 317 b 389 61 636 175 532 61 b 142 317 246 61 142 175 b 389 572 142 458 246 572 b 636 317 532 572 636 458 z m 715 317 b 389 647 715 499 578 647 b 63 317 200 647 63 499 b 389 -14 63 135 200 -14 b 715 317 578 -14 715 135 z m 432 825 b 501 756 432 786 463 756 b 572 825 540 756 572 786 b 501 896 572 864 540 896 b 432 825 463 896 432 864 z m 206 825 b 275 756 206 786 236 756 b 346 825 314 756 346 786 b 275 896 346 864 314 896 b 206 825 236 896 206 864 z "},"õ":{"ha":778,"x_min":0,"x_max":0,"o":"m 636 317 b 389 61 636 175 532 61 b 142 317 246 61 142 175 b 389 572 142 458 246 572 b 636 317 532 572 636 458 z m 715 317 b 389 647 715 499 578 647 b 63 317 200 647 63 499 b 389 -14 63 135 200 -14 b 715 317 578 -14 715 135 z m 254 772 b 304 835 257 817 275 835 b 476 772 357 835 406 772 b 579 888 544 772 578 832 l 524 903 b 474 840 521 858 503 840 b 301 903 421 840 372 903 b 199 788 233 903 200 843 z "},"ú":{"ha":788,"x_min":0,"x_max":0,"o":"m 447 931 l 357 736 l 419 736 l 551 931 z m 593 0 l 669 0 l 669 633 l 590 633 l 590 193 b 379 61 549 114 465 61 b 219 144 310 61 253 94 b 183 308 197 178 183 219 l 183 633 l 104 633 l 104 296 b 142 117 104 211 118 160 b 379 -14 188 36 275 -14 b 593 86 467 -14 549 28 z "},"ù":{"ha":788,"x_min":0,"x_max":0,"o":"m 235 931 l 367 736 l 429 736 l 339 931 z m 593 0 l 669 0 l 669 633 l 590 633 l 590 193 b 379 61 549 114 465 61 b 219 144 310 61 253 94 b 183 308 197 178 183 219 l 183 633 l 104 633 l 104 296 b 142 117 104 211 118 160 b 379 -14 188 36 275 -14 b 593 86 467 -14 549 28 z "},"û":{"ha":788,"x_min":0,"x_max":0,"o":"m 390 867 l 508 736 l 571 736 l 439 931 l 342 931 l 210 736 l 272 736 z m 593 0 l 669 0 l 669 633 l 590 633 l 590 193 b 379 61 549 114 465 61 b 219 144 310 61 253 94 b 183 308 197 178 183 219 l 183 633 l 104 633 l 104 296 b 142 117 104 211 118 160 b 379 -14 188 36 275 -14 b 593 86 467 -14 549 28 z "},"ü":{"ha":788,"x_min":0,"x_max":0,"o":"m 435 825 b 504 756 435 786 465 756 b 575 825 543 756 575 786 b 504 896 575 864 543 896 b 435 825 465 896 435 864 z m 208 825 b 278 756 208 786 239 756 b 349 825 317 756 349 786 b 278 896 349 864 317 896 b 208 825 239 896 208 864 z m 593 0 l 669 0 l 669 633 l 590 633 l 590 193 b 379 61 549 114 465 61 b 219 144 310 61 253 94 b 183 308 197 178 183 219 l 183 633 l 104 633 l 104 296 b 142 117 104 211 118 160 b 379 -14 188 36 275 -14 b 593 86 467 -14 549 28 z "},"†":{"ha":701,"x_min":0,"x_max":0,"o":"m 311 -278 l 390 -278 l 390 550 l 632 550 l 632 625 l 390 625 l 390 972 l 311 972 l 311 625 l 69 625 l 69 550 l 311 550 z "},"‡":{"ha":701,"x_min":0,"x_max":0,"o":"m 69 292 l 69 217 l 311 217 l 311 -278 l 390 -278 l 390 217 l 632 217 l 632 292 l 390 292 l 390 550 l 632 550 l 632 625 l 390 625 l 390 972 l 311 972 l 311 625 l 69 625 l 69 550 l 311 550 l 311 292 z "},"À":{"ha":908,"x_min":0,"x_max":0,"o":"m 288 1222 l 419 1028 l 482 1028 l 392 1222 z m 426 972 l 7 0 l 90 0 l 218 293 l 690 293 l 818 0 l 901 0 l 482 972 z m 454 842 l 656 372 l 251 372 z "},"Ã":{"ha":908,"x_min":0,"x_max":0,"o":"m 315 1064 b 365 1126 318 1108 336 1126 b 538 1064 418 1126 467 1064 b 640 1179 606 1064 639 1124 l 585 1194 b 535 1132 582 1150 564 1132 b 363 1194 482 1132 433 1194 b 260 1079 294 1194 261 1135 z m 426 972 l 7 0 l 90 0 l 218 293 l 690 293 l 818 0 l 901 0 l 482 972 z m 454 842 l 656 372 l 251 372 z "},"Õ":{"ha":1064,"x_min":0,"x_max":0,"o":"m 49 486 b 532 -14 49 203 257 -14 b 1015 486 807 -14 1015 203 b 532 986 1015 769 807 986 b 49 486 257 986 49 769 z m 132 486 b 532 907 132 717 297 907 b 932 486 767 907 932 717 b 532 65 932 256 767 65 b 132 486 297 65 132 256 z m 397 1064 b 447 1126 400 1108 418 1126 b 619 1064 500 1126 549 1064 b 722 1179 688 1064 721 1124 l 667 1194 b 617 1132 664 1150 646 1132 b 444 1194 564 1132 515 1194 b 342 1079 376 1194 343 1135 z "},"Ÿ":{"ha":778,"x_min":0,"x_max":0,"o":"m 764 972 l 669 972 l 389 538 l 108 972 l 14 972 l 347 457 l 347 0 l 431 0 l 431 457 z m 432 1117 b 501 1047 432 1078 463 1047 b 572 1117 540 1047 572 1078 b 501 1188 572 1156 540 1188 b 432 1117 463 1188 432 1156 z m 206 1117 b 275 1047 206 1078 236 1047 b 346 1117 314 1047 346 1078 b 275 1188 346 1156 314 1188 b 206 1117 236 1188 206 1156 z "},"ÿ":{"ha":676,"x_min":0,"x_max":0,"o":"m 386 825 b 456 756 386 786 417 756 b 526 825 494 756 526 786 b 456 896 526 864 494 896 b 386 825 417 896 386 864 z m 160 825 b 229 756 160 786 190 756 b 300 825 268 756 300 786 b 229 896 300 864 268 896 b 160 825 190 896 160 864 z m 217 -333 l 656 633 l 571 633 l 347 142 l 110 633 l 21 633 l 307 51 l 133 -333 z "},"Š":{"ha":717,"x_min":0,"x_max":0,"o":"m 239 1236 l 176 1236 l 308 1042 l 406 1042 l 538 1236 l 475 1236 l 357 1106 z m 49 150 b 371 -14 132 40 242 -14 b 654 247 529 -14 654 93 b 507 482 654 360 588 432 b 172 735 368 568 172 588 b 368 907 172 840 260 907 b 561 828 449 907 504 878 l 614 889 b 365 986 569 928 490 986 b 89 731 210 986 89 882 b 221 531 89 632 149 575 b 571 247 363 443 571 424 b 371 65 571 135 468 65 b 110 204 243 65 167 131 z "},"š":{"ha":590,"x_min":0,"x_max":0,"o":"m 56 76 b 301 -14 111 25 196 -14 b 521 176 421 -14 521 58 b 156 464 521 399 156 324 b 296 572 156 538 229 572 b 454 521 361 572 400 556 l 496 586 b 292 647 449 618 378 647 b 76 463 185 647 76 578 b 442 172 76 246 442 335 b 296 61 442 106 375 61 b 104 138 225 61 158 92 z m 169 944 l 107 944 l 239 750 l 336 750 l 468 944 l 406 944 l 288 814 z "},"Ý":{"ha":778,"x_min":0,"x_max":0,"o":"m 764 972 l 669 972 l 389 538 l 108 972 l 14 972 l 347 457 l 347 0 l 431 0 l 431 457 z m 450 1222 l 360 1028 l 422 1028 l 554 1222 z "},"ý":{"ha":676,"x_min":0,"x_max":0,"o":"m 392 931 l 301 736 l 364 736 l 496 931 z m 217 -333 l 656 633 l 571 633 l 347 142 l 110 633 l 21 633 l 307 51 l 133 -333 z "},"Â":{"ha":908,"x_min":0,"x_max":0,"o":"m 454 1158 l 572 1028 l 635 1028 l 503 1222 l 406 1222 l 274 1028 l 336 1028 z m 426 972 l 7 0 l 90 0 l 218 293 l 690 293 l 818 0 l 901 0 l 482 972 z m 454 842 l 656 372 l 251 372 z "},"Ê":{"ha":722,"x_min":0,"x_max":0,"o":"m 653 893 l 653 972 l 125 972 l 125 0 l 667 0 l 667 79 l 208 79 l 208 497 l 556 497 l 556 576 l 208 576 l 208 893 z m 396 1158 l 514 1028 l 576 1028 l 444 1222 l 347 1222 l 215 1028 l 278 1028 z "},"Á":{"ha":908,"x_min":0,"x_max":0,"o":"m 517 1222 l 426 1028 l 489 1028 l 621 1222 z m 426 972 l 7 0 l 90 0 l 218 293 l 690 293 l 818 0 l 901 0 l 482 972 z m 454 842 l 656 372 l 251 372 z "},"Ë":{"ha":722,"x_min":0,"x_max":0,"o":"m 653 893 l 653 972 l 125 972 l 125 0 l 667 0 l 667 79 l 208 79 l 208 497 l 556 497 l 556 576 l 208 576 l 208 893 z m 439 1117 b 508 1047 439 1078 469 1047 b 579 1117 547 1047 579 1078 b 508 1188 579 1156 547 1188 b 439 1117 469 1188 439 1156 z m 213 1117 b 282 1047 213 1078 243 1047 b 353 1117 321 1047 353 1078 b 282 1188 353 1156 321 1188 b 213 1117 243 1188 213 1156 z "},"È":{"ha":722,"x_min":0,"x_max":0,"o":"m 653 893 l 653 972 l 125 972 l 125 0 l 667 0 l 667 79 l 208 79 l 208 497 l 556 497 l 556 576 l 208 576 l 208 893 z m 232 1222 l 364 1028 l 426 1028 l 336 1222 z "},"Í":{"ha":333,"x_min":0,"x_max":0,"o":"m 125 0 l 208 0 l 208 972 l 125 972 z m 229 1222 l 139 1028 l 201 1028 l 333 1222 z "},"Î":{"ha":333,"x_min":0,"x_max":0,"o":"m 125 0 l 208 0 l 208 972 l 125 972 z m 167 1158 l 285 1028 l 347 1028 l 215 1222 l 118 1222 l -14 1028 l 49 1028 z "},"Ï":{"ha":333,"x_min":0,"x_max":0,"o":"m 125 0 l 208 0 l 208 972 l 125 972 z m 210 1117 b 279 1047 210 1078 240 1047 b 350 1117 318 1047 350 1078 b 279 1188 350 1156 318 1188 b 210 1117 240 1188 210 1156 z m -17 1117 b 53 1047 -17 1078 14 1047 b 124 1117 92 1047 124 1078 b 53 1188 124 1156 92 1188 b -17 1117 14 1188 -17 1156 z "},"Ì":{"ha":333,"x_min":0,"x_max":0,"o":"m 125 0 l 208 0 l 208 972 l 125 972 z m 0 1222 l 132 1028 l 194 1028 l 104 1222 z "},"Ó":{"ha":1064,"x_min":0,"x_max":0,"o":"m 49 486 b 532 -14 49 203 257 -14 b 1015 486 807 -14 1015 203 b 532 986 1015 769 807 986 b 49 486 257 986 49 769 z m 132 486 b 532 907 132 717 297 907 b 932 486 767 907 932 717 b 532 65 932 256 767 65 b 132 486 297 65 132 256 z m 594 1222 l 503 1028 l 567 1028 l 700 1222 z "},"Ô":{"ha":1064,"x_min":0,"x_max":0,"o":"m 49 486 b 532 -14 49 203 257 -14 b 1015 486 807 -14 1015 203 b 532 986 1015 769 807 986 b 49 486 257 986 49 769 z m 132 486 b 532 907 132 717 297 907 b 932 486 767 907 932 717 b 532 65 932 256 767 65 b 132 486 297 65 132 256 z m 532 1158 l 650 1028 l 713 1028 l 581 1222 l 483 1222 l 351 1028 l 414 1028 z "},"Ò":{"ha":1064,"x_min":0,"x_max":0,"o":"m 49 486 b 532 -14 49 203 257 -14 b 1015 486 807 -14 1015 203 b 532 986 1015 769 807 986 b 49 486 257 986 49 769 z m 132 486 b 532 907 132 717 297 907 b 932 486 767 907 932 717 b 532 65 932 256 767 65 b 132 486 297 65 132 256 z m 369 1222 l 501 1028 l 564 1028 l 474 1222 z "},"Ú":{"ha":1000,"x_min":0,"x_max":0,"o":"m 500 -14 b 832 163 640 -14 764 56 b 889 389 868 219 889 286 l 889 972 l 806 972 l 806 385 b 763 204 806 300 790 249 b 500 65 708 119 611 65 b 238 204 389 65 292 119 b 194 385 210 249 194 300 l 194 972 l 111 972 l 111 389 b 168 163 111 286 132 219 b 500 -14 236 56 360 -14 z m 560 1222 l 469 1028 l 532 1028 l 664 1222 z "},"Û":{"ha":1000,"x_min":0,"x_max":0,"o":"m 500 -14 b 832 163 640 -14 764 56 b 889 389 868 219 889 286 l 889 972 l 806 972 l 806 385 b 763 204 806 300 790 249 b 500 65 708 119 611 65 b 238 204 389 65 292 119 b 194 385 210 249 194 300 l 194 972 l 111 972 l 111 389 b 168 163 111 286 132 219 b 500 -14 236 56 360 -14 z m 500 1158 l 618 1028 l 681 1028 l 549 1222 l 451 1222 l 319 1028 l 382 1028 z "},"Ù":{"ha":1000,"x_min":0,"x_max":0,"o":"m 500 -14 b 832 163 640 -14 764 56 b 889 389 868 219 889 286 l 889 972 l 806 972 l 806 385 b 763 204 806 300 790 249 b 500 65 708 119 611 65 b 238 204 389 65 292 119 b 194 385 210 249 194 300 l 194 972 l 111 972 l 111 389 b 168 163 111 286 132 219 b 500 -14 236 56 360 -14 z m 336 1222 l 468 1028 l 531 1028 l 440 1222 z "},".":{"ha":422,"x_min":0,"x_max":0,"o":"m 153 58 b 225 -14 153 18 185 -14 b 297 58 265 -14 297 18 b 225 131 297 99 265 131 b 153 58 185 131 153 99 z "},"E":{"ha":722,"x_min":0,"x_max":0,"o":"m 653 893 l 653 972 l 125 972 l 125 0 l 667 0 l 667 79 l 208 79 l 208 497 l 556 497 l 556 576 l 208 576 l 208 893 z "},"…":{"ha":1144,"x_min":0,"x_max":0,"o":"m 153 58 b 225 -14 153 18 185 -14 b 297 58 265 -14 297 18 b 225 131 297 99 265 131 b 153 58 185 131 153 99 z m 514 58 b 586 -14 514 18 546 -14 b 658 58 626 -14 658 18 b 586 131 658 99 626 131 b 514 58 546 131 514 99 z m 875 58 b 947 -14 875 18 907 -14 b 1019 58 988 -14 1019 18 b 947 131 1019 99 988 131 b 875 58 907 131 875 99 z "},"·":{"ha":422,"x_min":0,"x_max":0,"o":"m 139 317 b 211 244 139 276 171 244 b 283 317 251 244 283 276 b 211 389 283 357 251 389 b 139 317 171 389 139 357 z "},"-":{"ha":583,"x_min":0,"x_max":0,"o":"m 111 381 l 111 313 l 472 313 l 472 381 z "},"–":{"ha":625,"x_min":0,"x_max":0,"o":"m 28 381 l 28 313 l 597 313 l 597 381 z "},"—":{"ha":1042,"x_min":0,"x_max":0,"o":"m 28 381 l 28 313 l 1014 313 l 1014 381 z "},"¨":{"ha":561,"x_min":0,"x_max":0,"o":"m 324 825 b 393 756 324 786 354 756 b 464 825 432 756 464 786 b 393 896 464 864 432 896 b 324 825 354 896 324 864 z m 97 825 b 167 756 97 786 128 756 b 238 825 206 756 238 786 b 167 896 238 864 206 896 b 97 825 128 896 97 864 z "},"´":{"ha":389,"x_min":0,"x_max":0,"o":"m 188 931 l 97 736 l 160 736 l 292 931 z "},"`":{"ha":389,"x_min":0,"x_max":0,"o":"m 97 931 l 229 736 l 292 736 l 201 931 z "},"˙":{"ha":335,"x_min":0,"x_max":0,"o":"m 97 853 b 167 783 97 814 128 783 b 238 853 206 783 238 814 b 167 924 238 892 206 924 b 97 853 128 924 97 892 z "},":":{"ha":422,"x_min":0,"x_max":0,"o":"m 153 58 b 225 -14 153 18 185 -14 b 297 58 265 -14 297 18 b 225 131 297 99 265 131 b 153 58 185 131 153 99 z m 153 575 b 225 503 153 535 185 503 b 297 575 265 503 297 535 b 225 647 297 615 265 647 b 153 575 185 647 153 615 z "},";":{"ha":422,"x_min":0,"x_max":0,"o":"m 78 -194 l 147 -194 l 281 139 l 176 139 z m 153 575 b 225 503 153 535 185 503 b 297 575 265 503 297 535 b 225 647 297 615 265 647 b 153 575 185 647 153 615 z "},",":{"ha":422,"x_min":0,"x_max":0,"o":"m 78 -194 l 147 -194 l 281 139 l 176 139 z "},"¦":{"ha":301,"x_min":0,"x_max":0,"o":"m 111 -278 l 190 -278 l 190 264 l 111 264 z m 111 431 l 190 431 l 190 972 l 111 972 z "},"•":{"ha":722,"x_min":0,"x_max":0,"o":"m 111 317 b 361 67 111 179 224 67 b 611 317 499 67 611 179 b 361 567 611 454 499 567 b 111 317 224 567 111 454 z "},"_":{"ha":625,"x_min":0,"x_max":0,"o":"m 28 0 l 28 -68 l 597 -68 l 597 0 z "},"Ž":{"ha":813,"x_min":0,"x_max":0,"o":"m 56 51 l 56 0 l 764 0 l 764 79 l 171 79 l 736 921 l 736 972 l 97 972 l 97 893 l 624 893 z m 293 1236 l 231 1236 l 363 1042 l 460 1042 l 592 1236 l 529 1236 l 411 1106 z "},"ž":{"ha":653,"x_min":0,"x_max":0,"o":"m 56 47 l 56 0 l 611 0 l 611 75 l 174 75 l 597 586 l 597 633 l 90 633 l 90 558 l 478 558 z m 243 944 l 181 944 l 313 750 l 410 750 l 542 944 l 479 944 l 361 814 z "},"«":{"ha":743,"x_min":0,"x_max":0,"o":"m 589 583 l 389 350 l 389 303 l 589 69 l 688 69 l 468 326 l 688 583 z m 311 583 l 111 350 l 111 303 l 311 69 l 410 69 l 190 326 l 410 583 z "},"‹":{"ha":465,"x_min":0,"x_max":0,"o":"m 311 583 l 111 350 l 111 303 l 311 69 l 410 69 l 190 326 l 410 583 z "},"›":{"ha":465,"x_min":0,"x_max":0,"o":"m 56 583 l 275 326 l 56 69 l 154 69 l 354 303 l 354 350 l 154 583 z "},"'":{"ha":301,"x_min":0,"x_max":0,"o":"m 125 619 l 176 619 l 190 972 l 111 972 z "},"‚":{"ha":369,"x_min":0,"x_max":0,"o":"m 83 -194 l 153 -194 l 286 139 l 182 139 z "},"’":{"ha":369,"x_min":0,"x_max":0,"o":"m 83 639 l 153 639 l 286 972 l 182 972 z "},"‘":{"ha":369,"x_min":0,"x_max":0,"o":"m 286 972 l 217 972 l 83 639 l 188 639 z "},"“":{"ha":633,"x_min":0,"x_max":0,"o":"m 550 972 l 481 972 l 347 639 l 451 639 z m 286 972 l 217 972 l 83 639 l 188 639 z "},"”":{"ha":633,"x_min":0,"x_max":0,"o":"m 83 639 l 153 639 l 286 972 l 182 972 z m 347 639 l 417 639 l 550 972 l 446 972 z "},"„":{"ha":633,"x_min":0,"x_max":0,"o":"m 83 -194 l 153 -194 l 286 139 l 182 139 z m 347 -194 l 417 -194 l 550 139 l 446 139 z "},"ˆ":{"ha":556,"x_min":0,"x_max":0,"o":"m 278 867 l 396 736 l 458 736 l 326 931 l 229 931 l 97 736 l 160 736 z "},"ˇ":{"ha":556,"x_min":0,"x_max":0,"o":"m 160 944 l 97 944 l 229 750 l 326 750 l 458 944 l 396 944 l 278 814 z "},"\"":{"ha":569,"x_min":0,"x_max":0,"o":"m 125 619 l 176 619 l 190 972 l 111 972 z m 393 619 l 444 619 l 458 972 l 379 972 z "},"A":{"ha":908,"x_min":0,"x_max":0,"o":"m 426 972 l 7 0 l 90 0 l 218 293 l 690 293 l 818 0 l 901 0 l 482 972 z m 454 842 l 656 372 l 251 372 z "},"˜":{"ha":575,"x_min":0,"x_max":0,"o":"m 153 772 b 203 835 156 817 174 835 b 375 772 256 835 304 772 b 478 888 443 772 476 832 l 422 903 b 372 840 419 858 401 840 b 200 903 319 840 271 903 b 97 788 132 903 99 843 z "},"˚":{"ha":444,"x_min":0,"x_max":0,"o":"m 97 847 b 222 722 97 778 153 722 b 347 847 292 722 347 778 b 222 972 347 917 292 972 b 97 847 153 972 97 917 z m 153 847 b 222 917 153 886 183 917 b 292 847 261 917 292 886 b 222 778 292 808 261 778 b 153 847 183 778 153 808 z "},"œ":{"ha":1297,"x_min":0,"x_max":0,"o":"m 1157 156 b 954 61 1107 94 1038 61 b 715 310 808 61 721 175 l 1232 310 b 1233 338 1233 322 1233 332 b 939 647 1233 514 1108 647 b 672 474 815 647 719 576 b 389 647 619 576 521 647 b 63 317 200 647 63 499 b 389 -14 63 135 200 -14 b 674 161 522 -14 624 57 b 954 -14 726 53 828 -14 b 1213 103 1075 -14 1165 43 z m 636 317 b 389 61 636 175 532 61 b 142 317 246 61 142 175 b 389 572 142 458 246 572 b 636 317 532 572 636 458 z m 939 572 b 1151 382 1049 572 1135 493 l 719 382 b 939 572 743 492 826 572 z "},"(":{"ha":590,"x_min":0,"x_max":0,"o":"m 301 347 b 493 940 301 569 372 774 l 429 986 b 222 347 299 807 222 586 b 429 -292 222 108 299 -112 l 493 -246 b 301 347 372 -79 301 125 z "},"þ":{"ha":808,"x_min":0,"x_max":0,"o":"m 197 444 b 425 572 225 492 308 572 b 578 518 478 572 533 554 b 667 317 633 472 667 399 b 567 108 667 229 628 151 b 424 61 526 81 478 61 b 197 200 331 61 247 114 z m 118 -333 l 197 -333 l 197 90 b 422 -14 244 29 324 -14 b 611 46 482 -14 549 1 b 746 317 694 104 746 203 b 628 576 746 422 700 515 b 426 647 575 619 503 647 b 197 549 339 647 257 613 l 197 986 l 118 986 z "},")":{"ha":590,"x_min":0,"x_max":0,"o":"m 289 347 b 97 -246 289 125 218 -79 l 161 -292 b 368 347 292 -112 368 108 b 161 986 368 586 292 807 l 97 940 b 289 347 218 774 289 569 z "},"Þ":{"ha":806,"x_min":0,"x_max":0,"o":"m 125 972 l 125 0 l 208 0 l 208 235 l 485 235 b 675 293 574 235 632 257 b 764 486 729 339 764 408 b 675 679 764 564 729 633 b 485 738 632 715 574 738 l 208 738 l 208 972 z m 208 314 l 208 658 l 481 658 b 631 607 556 658 599 639 b 681 486 661 576 681 533 b 631 365 681 439 661 396 b 481 314 599 333 556 314 z "},"ç":{"ha":694,"x_min":0,"x_max":0,"o":"m 596 149 b 401 61 542 92 475 61 b 142 317 253 61 142 175 b 390 572 142 461 257 572 b 582 492 471 572 535 538 l 632 549 b 390 647 575 606 496 647 b 63 317 200 647 63 494 b 363 -11 63 129 201 6 l 296 -194 l 400 -194 l 429 -12 b 653 96 517 -6 596 31 z "},"Ø":{"ha":1064,"x_min":0,"x_max":0,"o":"m 49 486 b 217 101 49 329 113 192 l 136 -14 l 226 -14 l 276 57 b 532 -14 350 11 436 -14 b 1015 486 807 -14 1015 203 b 846 871 1015 643 950 781 l 928 986 l 836 986 l 786 915 b 532 986 714 960 626 986 b 49 486 257 986 49 769 z m 932 486 b 532 65 932 256 767 65 b 322 124 453 65 382 86 l 799 803 b 932 486 882 725 932 613 z m 132 486 b 532 907 132 717 297 907 b 740 849 610 907 681 886 l 264 169 b 132 486 181 247 132 360 z "},"$":{"ha":717,"x_min":0,"x_max":0,"o":"m 49 150 b 319 -11 121 54 213 1 l 319 -160 l 399 -160 l 399 -12 b 654 247 543 0 654 101 b 507 482 654 360 588 432 b 172 735 368 568 172 588 b 368 907 172 840 260 907 b 561 828 449 907 504 878 l 614 889 b 399 985 574 924 504 975 l 399 1132 l 319 1132 l 319 983 b 89 731 186 965 89 867 b 221 531 89 632 149 575 b 571 247 363 443 571 424 b 371 65 571 135 468 65 b 110 204 243 65 167 131 z "},"Ð":{"ha":979,"x_min":0,"x_max":0,"o":"m -14 497 l 125 497 l 125 0 l 403 0 b 738 92 557 0 658 33 b 931 486 857 181 931 325 b 738 881 931 647 857 792 b 403 972 658 939 557 972 l 125 972 l 125 576 l -14 576 z m 847 486 b 694 161 847 356 790 236 b 399 79 625 107 535 79 l 208 79 l 208 497 l 486 497 l 486 576 l 208 576 l 208 893 l 399 893 b 694 811 535 893 625 865 b 847 486 790 736 847 617 z "},"ﬁ":{"ha":801,"x_min":0,"x_max":0,"o":"m 472 993 b 411 1000 453 997 432 1000 b 231 922 339 1000 274 974 b 178 729 197 882 178 826 l 178 633 l 14 633 l 14 558 l 178 558 l 178 0 l 257 0 l 257 558 l 604 558 l 604 0 l 683 0 l 683 633 l 257 633 l 257 733 b 286 865 257 808 268 839 b 410 925 314 906 358 925 b 457 919 426 925 442 924 z m 574 853 b 643 783 574 814 604 783 b 714 853 682 783 714 814 b 643 924 714 892 682 924 b 574 853 604 924 574 892 z "},"ﬂ":{"ha":801,"x_min":0,"x_max":0,"o":"m 604 0 l 683 0 l 683 986 l 604 986 l 604 633 l 257 633 l 257 733 b 286 865 257 808 268 839 b 410 925 314 906 358 925 b 457 919 426 925 442 924 l 472 993 b 411 1000 453 997 432 1000 b 231 922 339 1000 274 974 b 178 729 197 882 178 826 l 178 633 l 14 633 l 14 558 l 178 558 l 178 0 l 257 0 l 257 558 l 604 558 z "},"ø":{"ha":778,"x_min":0,"x_max":0,"o":"m 715 317 b 608 564 715 414 675 503 l 667 647 l 578 647 l 549 606 b 389 647 503 632 449 647 b 63 317 200 647 63 499 b 168 69 63 218 101 129 l 111 -14 l 200 -14 l 228 26 b 389 -14 275 1 329 -14 b 715 317 578 -14 715 135 z m 142 317 b 389 572 142 458 246 572 b 503 544 431 572 469 563 l 215 131 b 142 317 169 178 142 243 z m 636 317 b 389 61 636 175 532 61 b 275 88 347 61 308 71 l 561 501 b 636 317 608 456 636 389 z "},"¢":{"ha":694,"x_min":0,"x_max":0,"o":"m 596 149 b 401 61 542 92 475 61 b 142 317 253 61 142 175 b 390 572 142 461 257 572 b 582 492 471 572 535 538 l 632 549 b 431 644 582 597 515 636 l 431 807 l 351 807 l 351 644 b 63 317 181 625 63 482 b 351 -10 63 133 196 13 l 351 -160 l 431 -160 l 431 -12 b 653 96 517 -6 596 32 z "},"¶":{"ha":910,"x_min":0,"x_max":0,"o":"m 368 972 b 243 956 306 972 274 967 b 42 674 126 915 42 804 b 340 375 42 508 175 375 l 340 -278 l 419 -278 l 419 897 l 622 897 l 622 -278 l 701 -278 l 701 897 l 840 897 l 840 972 z m 121 674 b 340 897 121 797 218 897 l 340 450 b 121 674 218 450 121 550 z "},"§":{"ha":806,"x_min":0,"x_max":0,"o":"m 722 288 b 433 558 722 460 571 515 b 218 739 322 593 218 631 b 414 907 218 842 307 907 b 608 829 494 907 551 879 l 660 889 b 411 986 615 928 536 986 b 135 739 261 986 135 886 b 196 586 135 669 158 622 b 83 379 129 539 83 468 b 372 108 83 207 235 151 b 588 -72 483 74 588 36 b 392 -240 588 -175 499 -240 b 197 -162 311 -240 254 -212 l 146 -222 b 394 -319 190 -261 269 -319 b 671 -72 544 -319 671 -219 b 610 79 671 -3 647 44 b 722 288 676 126 722 199 z m 443 472 b 640 288 546 438 640 390 b 535 129 640 215 592 161 b 363 194 482 156 419 175 b 165 379 260 231 165 276 b 269 536 165 450 214 504 b 443 472 324 510 385 492 z "},"£":{"ha":715,"x_min":0,"x_max":0,"o":"m 76 468 l 224 468 b 251 338 239 426 251 383 b 49 47 251 199 163 90 l 49 0 l 674 0 l 674 75 l 228 75 b 331 336 264 114 331 197 b 307 468 331 383 321 426 l 457 468 l 457 543 l 279 543 b 219 731 250 611 219 672 b 394 911 219 857 321 911 b 561 810 489 911 536 853 l 625 854 b 394 986 589 915 513 986 b 140 731 251 985 140 882 b 193 543 140 665 167 604 l 76 543 z "},"æ":{"ha":1271,"x_min":0,"x_max":0,"o":"m 688 0 l 688 103 b 929 -14 744 29 828 -14 b 1188 103 1050 -14 1140 43 l 1132 156 b 929 61 1082 94 1013 61 b 690 310 783 61 696 175 l 1207 310 b 1208 338 1208 322 1208 332 b 914 647 1208 514 1083 647 b 688 536 817 647 739 604 l 688 633 l 614 633 l 614 546 b 382 647 557 610 474 647 b 181 576 306 647 233 619 b 63 317 108 515 63 422 b 197 46 63 203 114 104 b 386 -14 260 1 326 -14 b 614 93 485 -14 567 29 l 614 0 z m 611 200 b 385 61 561 114 478 61 b 242 108 331 61 282 81 b 142 317 181 151 142 229 b 231 518 142 399 175 472 b 383 572 275 554 331 572 b 611 444 500 572 583 492 z m 914 572 b 1126 382 1024 572 1110 493 l 694 382 b 914 572 718 492 801 572 z "},"¥":{"ha":778,"x_min":0,"x_max":0,"o":"m 764 972 l 669 972 l 389 538 l 108 972 l 14 972 l 233 632 l 83 632 l 83 557 l 282 557 l 347 457 l 347 417 l 83 417 l 83 342 l 347 342 l 347 0 l 431 0 l 431 342 l 694 342 l 694 417 l 431 417 l 431 457 l 494 557 l 694 557 l 694 632 l 543 632 z "},"°":{"ha":542,"x_min":0,"x_max":0,"o":"m 56 771 b 271 556 56 651 151 556 b 486 771 390 556 486 651 b 271 986 486 890 390 986 b 56 771 151 986 56 890 z m 126 771 b 269 915 126 850 190 915 b 414 771 349 915 414 850 b 269 628 414 692 349 628 b 126 771 190 628 126 692 z "},"ß":{"ha":792,"x_min":0,"x_max":0,"o":"m 272 29 b 433 -14 314 0 375 -14 b 729 281 604 -14 729 117 b 549 556 729 404 658 511 b 639 750 607 601 639 671 b 378 1000 639 888 536 1000 b 183 922 296 1000 229 971 b 118 708 142 878 118 817 l 118 0 l 197 0 l 197 708 b 238 867 197 794 211 836 b 378 925 268 903 317 925 b 560 750 492 925 560 847 b 378 576 560 653 492 576 l 347 576 l 347 501 l 401 501 b 563 458 481 501 526 485 b 650 281 617 418 650 354 b 429 61 650 158 556 61 b 314 92 386 61 347 72 z "},"¸":{"ha":333,"x_min":0,"x_max":0,"o":"m 97 -194 l 201 -194 l 236 14 l 174 14 z "},"&":{"ha":883,"x_min":0,"x_max":0,"o":"m 729 186 b 786 407 767 253 786 331 b 764 589 786 475 775 544 l 686 571 b 707 407 693 539 707 476 b 671 243 707 353 694 294 l 342 558 b 508 789 426 611 508 683 b 306 986 508 893 431 986 b 103 789 181 986 103 893 b 218 569 103 710 150 636 b 28 279 118 507 28 417 b 375 -14 28 110 186 -14 b 686 124 513 -14 617 42 l 815 0 l 925 0 z m 107 279 b 276 515 107 376 169 447 l 629 176 b 375 61 576 108 493 61 b 107 279 218 61 107 163 z m 429 789 b 286 611 429 713 357 658 l 271 626 b 182 789 226 669 182 728 b 306 911 182 861 236 911 b 429 789 375 911 429 861 z "},"!":{"ha":333,"x_min":0,"x_max":0,"o":"m 142 292 l 193 292 l 207 633 l 207 972 l 128 972 l 128 633 z m 94 58 b 167 -14 94 18 126 -14 b 239 58 207 -14 239 18 b 167 131 239 99 207 131 b 94 58 126 131 94 99 z "},"¡":{"ha":333,"x_min":0,"x_max":0,"o":"m 128 6 l 128 -333 l 207 -333 l 207 6 l 193 347 l 142 347 z m 94 575 b 167 503 94 535 126 503 b 239 575 207 503 239 535 b 167 647 239 615 207 647 b 94 575 126 647 94 615 z "},"#":{"ha":875,"x_min":0,"x_max":0,"o":"m 765 972 l 686 972 l 604 667 l 368 667 l 450 972 l 371 972 l 289 667 l 131 667 l 131 592 l 268 592 l 213 381 l 56 381 l 56 306 l 193 306 l 110 0 l 189 0 l 272 306 l 508 306 l 425 0 l 504 0 l 586 306 l 744 306 l 744 381 l 607 381 l 663 592 l 819 592 l 819 667 l 682 667 z m 347 592 l 583 592 l 528 381 l 292 381 z "},"¯":{"ha":583,"x_min":0,"x_max":0,"o":"m 97 869 l 97 800 l 486 800 l 486 869 z "},"~":{"ha":722,"x_min":0,"x_max":0,"o":"m 121 272 b 228 379 140 329 168 379 b 497 257 308 379 383 257 b 667 407 583 257 640 315 l 601 439 b 494 332 582 382 554 332 b 225 454 414 332 339 454 b 56 304 139 454 82 396 z "},"^":{"ha":626,"x_min":0,"x_max":0,"o":"m 42 486 l 124 486 l 313 856 l 503 486 l 585 486 l 339 972 l 288 972 z "},"*":{"ha":686,"x_min":0,"x_max":0,"o":"m 629 739 l 607 804 l 376 729 l 376 972 l 307 972 l 307 729 l 76 804 l 56 739 l 285 663 l 143 468 l 199 428 l 342 624 l 483 428 l 539 468 l 396 665 z "},"+":{"ha":736,"x_min":0,"x_max":0,"o":"m 660 318 l 660 393 l 406 393 l 406 647 l 331 647 l 331 393 l 76 393 l 76 318 l 331 318 l 331 64 l 406 64 l 406 318 z "},"−":{"ha":736,"x_min":0,"x_max":0,"o":"m 660 318 l 660 393 l 76 393 l 76 318 z "},"=":{"ha":736,"x_min":0,"x_max":0,"o":"m 660 440 l 660 515 l 76 515 l 76 440 z m 660 196 l 660 271 l 76 271 l 76 196 z "},"≈":{"ha":722,"x_min":0,"x_max":0,"o":"m 121 151 b 228 258 140 208 168 258 b 497 136 308 258 383 136 b 667 286 583 136 640 194 l 601 318 b 494 211 582 261 554 211 b 225 333 414 211 339 333 b 56 183 139 333 82 275 z m 121 393 b 228 500 140 450 168 500 b 497 378 308 500 383 378 b 667 528 583 378 640 436 l 601 560 b 494 453 582 503 554 453 b 225 575 414 453 339 575 b 56 425 139 575 82 517 z "},"Ł":{"ha":694,"x_min":0,"x_max":0,"o":"m 208 972 l 125 972 l 125 557 l -14 476 l -14 389 l 125 469 l 125 0 l 667 0 l 667 79 l 208 79 l 208 517 l 417 638 l 417 725 l 208 604 z "},"ł":{"ha":315,"x_min":0,"x_max":0,"o":"m 118 0 l 197 0 l 197 515 l 336 596 l 336 681 l 197 600 l 197 986 l 118 986 l 118 554 l -21 475 l -21 389 l 118 469 z "},"¬":{"ha":736,"x_min":0,"x_max":0,"o":"m 585 196 l 660 196 l 660 515 l 76 515 l 76 440 l 585 440 z "},"∆":{"ha":804,"x_min":0,"x_max":0,"o":"m 428 972 l 376 972 l 21 47 l 21 0 l 783 0 l 783 47 z m 401 825 l 693 75 l 111 75 z "},"≠":{"ha":736,"x_min":0,"x_max":0,"o":"m 588 661 l 500 661 l 415 515 l 76 515 l 76 440 l 372 440 l 275 271 l 76 271 l 76 196 l 232 196 l 149 50 l 236 50 l 319 196 l 660 196 l 660 271 l 363 271 l 460 440 l 660 440 l 660 515 l 503 515 z "},"×":{"ha":733,"x_min":0,"x_max":0,"o":"m 576 93 l 629 146 l 419 356 l 629 565 l 576 618 l 367 408 l 157 618 l 104 565 l 314 356 l 104 146 l 157 93 l 367 303 z "},"⁄":{"ha":653,"x_min":0,"x_max":0,"o":"m 79 0 l 646 972 l 574 972 l 7 0 z "},"µ":{"ha":801,"x_min":0,"x_max":0,"o":"m 393 -14 b 607 86 481 -14 563 28 l 607 0 l 683 0 l 683 633 l 604 633 l 604 193 b 393 61 563 114 479 61 b 233 144 324 61 267 94 b 197 308 211 178 197 219 l 197 633 l 118 633 l 118 -333 l 197 -333 l 197 76 b 393 -14 243 17 314 -14 z "},"÷":{"ha":736,"x_min":0,"x_max":0,"o":"m 660 318 l 660 393 l 76 393 l 76 318 z m 299 592 b 368 522 299 553 329 522 b 438 592 407 522 438 553 b 368 661 438 631 407 661 b 299 592 329 661 299 631 z m 299 119 b 368 50 299 81 329 50 b 438 119 407 50 438 81 b 368 189 438 158 407 189 b 299 119 329 189 299 158 z "},"∂":{"ha":778,"x_min":0,"x_max":0,"o":"m 486 633 b 394 647 457 642 425 647 b 63 317 200 647 63 501 b 389 -14 63 132 201 -14 b 715 315 579 -14 715 136 b 629 558 715 407 676 486 l 344 986 l 253 986 z m 564 513 b 636 317 600 471 636 397 b 389 61 636 175 532 61 b 142 317 246 61 142 175 b 394 572 142 461 244 572 b 564 513 461 572 524 546 z "},"ð":{"ha":778,"x_min":0,"x_max":0,"o":"m 340 853 l 175 758 l 214 694 l 381 792 l 486 633 b 394 647 457 642 425 647 b 63 317 200 647 63 501 b 389 -14 63 132 201 -14 b 715 315 579 -14 715 136 b 629 558 715 407 676 486 l 447 831 l 608 924 l 571 986 l 407 892 l 344 986 l 253 986 z m 564 513 b 636 317 600 471 636 397 b 389 61 636 175 532 61 b 142 317 246 61 142 175 b 394 572 142 461 244 572 b 564 513 461 572 524 546 z "},"%":{"ha":1236,"x_min":0,"x_max":0,"o":"m 493 738 b 324 558 493 639 421 558 b 157 738 229 558 157 639 b 324 917 157 836 229 917 b 493 738 421 917 493 836 z m 83 738 b 325 489 83 600 186 489 b 567 738 464 489 567 600 b 325 986 567 875 464 986 b 83 738 186 986 83 875 z m 1079 235 b 910 56 1079 136 1007 56 b 743 235 815 56 743 136 b 910 414 743 333 815 414 b 1079 235 1007 414 1079 333 z m 669 235 b 911 -14 669 97 772 -14 b 1153 235 1050 -14 1153 97 b 911 483 1153 372 1050 483 b 669 235 772 483 669 372 z m 371 0 l 938 972 l 865 972 l 299 0 z "},"∑":{"ha":771,"x_min":0,"x_max":0,"o":"m 622 708 l 701 708 l 701 972 l 21 972 l 21 925 l 447 501 l 7 47 l 7 0 l 715 0 l 715 264 l 636 264 l 636 75 l 138 75 l 531 479 l 531 526 l 157 897 l 622 897 z "},"∏":{"ha":764,"x_min":0,"x_max":0,"o":"m 518 0 l 597 0 l 597 897 l 736 897 l 736 972 l 28 972 l 28 897 l 167 897 l 167 0 l 246 0 l 246 897 l 518 897 z "},"π":{"ha":736,"x_min":0,"x_max":0,"o":"m 74 454 b 215 551 108 513 158 547 l 215 0 l 294 0 l 294 558 l 511 558 l 511 194 b 532 67 511 126 519 93 b 601 -14 551 26 582 1 l 646 49 b 601 103 625 64 610 82 b 590 182 592 128 590 156 l 590 558 l 729 558 l 729 633 l 283 633 b 136 608 218 633 174 624 b 7 494 74 582 33 538 z "},"∫":{"ha":710,"x_min":0,"x_max":0,"o":"m 386 722 b 576 911 411 851 465 911 b 668 890 611 911 644 903 l 696 963 b 576 986 661 978 619 986 b 419 940 514 986 460 971 b 311 738 361 896 328 824 b 185 -83 249 418 249 242 b -6 -272 160 -212 106 -272 b -97 -251 -40 -272 -74 -264 l -125 -324 b -6 -347 -90 -339 -49 -347 b 151 -301 57 -347 111 -332 b 260 -99 210 -257 243 -185 b 386 722 322 221 322 397 z "},"±":{"ha":736,"x_min":0,"x_max":0,"o":"m 660 376 l 660 451 l 406 451 l 406 675 l 331 675 l 331 451 l 76 451 l 76 376 l 331 376 l 331 153 l 406 153 l 406 376 z m 660 36 l 660 111 l 76 111 l 76 36 z "},"ƒ":{"ha":710,"x_min":0,"x_max":0,"o":"m 386 722 b 576 911 411 851 465 911 b 668 890 611 911 644 903 l 696 963 b 576 986 661 978 619 986 b 419 940 514 986 460 971 b 311 738 361 896 328 824 b 276 543 297 667 286 603 l 68 543 l 68 468 l 267 468 b 185 -83 242 292 228 139 b -6 -272 160 -212 106 -272 b -97 -251 -40 -272 -74 -264 l -125 -324 b -6 -347 -90 -339 -49 -347 b 151 -301 57 -347 111 -332 b 260 -99 210 -257 243 -185 b 343 468 304 126 317 282 l 572 468 l 572 543 l 354 543 b 386 722 363 599 374 657 z "},"?":{"ha":694,"x_min":0,"x_max":0,"o":"m 172 776 b 368 911 190 854 268 911 b 567 736 485 911 567 833 b 468 568 567 660 519 607 b 286 379 389 508 286 474 b 354 250 286 331 306 299 l 413 306 b 365 379 390 326 365 356 b 510 506 365 424 440 454 b 646 736 576 554 646 622 b 368 986 646 874 528 986 b 97 799 233 986 125 907 z m 289 58 b 361 -14 289 18 321 -14 b 433 58 401 -14 433 18 b 361 131 433 99 401 131 b 289 58 321 131 289 99 z "},"¿":{"ha":694,"x_min":0,"x_max":0,"o":"m 522 -137 b 326 -272 504 -215 426 -272 b 128 -97 210 -272 128 -194 b 226 71 128 -21 175 32 b 408 260 306 131 408 165 b 340 389 408 308 389 340 l 282 333 b 329 260 304 313 329 283 b 185 133 329 215 254 185 b 49 -97 118 85 49 17 b 326 -347 49 -235 167 -347 b 597 -160 461 -347 569 -268 z m 406 575 b 333 647 406 615 374 647 b 261 575 293 647 261 615 b 333 503 261 535 293 503 b 406 575 374 503 406 535 z "},">":{"ha":736,"x_min":0,"x_max":0,"o":"m 76 90 l 660 332 l 660 379 l 76 621 l 76 540 l 525 356 l 76 171 z "},"<":{"ha":736,"x_min":0,"x_max":0,"o":"m 660 171 l 211 356 l 660 540 l 660 621 l 76 379 l 76 332 l 660 90 z "},"{":{"ha":590,"x_min":0,"x_max":0,"o":"m 242 347 b 303 469 286 365 303 410 b 288 756 303 574 288 665 b 429 897 288 863 319 897 l 465 897 l 465 972 l 424 972 b 208 764 263 972 208 900 b 222 464 208 658 222 561 b 125 371 222 394 188 371 l 125 324 b 222 231 188 324 222 300 b 208 -69 222 133 208 36 b 424 -278 208 -206 263 -278 l 465 -278 l 465 -203 l 429 -203 b 288 -61 319 -203 288 -168 b 303 225 288 29 303 121 b 242 347 303 285 286 329 z "},"}":{"ha":590,"x_min":0,"x_max":0,"o":"m 349 347 b 288 225 304 329 288 285 b 303 -61 288 121 303 29 b 161 -203 303 -168 271 -203 l 125 -203 l 125 -278 l 167 -278 b 382 -69 328 -278 382 -206 b 368 231 382 36 368 133 b 465 324 368 300 403 324 l 465 371 b 368 464 403 371 368 394 b 382 764 368 561 382 658 b 167 972 382 900 328 972 l 125 972 l 125 897 l 161 897 b 303 756 271 897 303 863 b 288 469 303 665 288 574 b 349 347 288 410 304 365 z "},"∞":{"ha":1042,"x_min":0,"x_max":0,"o":"m 1000 385 b 754 644 1000 531 896 644 b 521 471 633 644 569 564 b 288 644 471 564 408 644 b 42 385 146 644 42 531 b 288 125 42 239 146 125 b 521 297 408 125 471 206 b 754 125 569 206 633 125 b 1000 385 896 125 1000 239 z m 288 200 b 121 385 194 200 121 272 b 288 569 121 497 193 569 b 478 385 383 569 431 482 b 288 200 431 288 383 200 z m 921 385 b 754 200 921 272 847 200 b 564 385 657 200 610 288 b 754 569 610 482 657 569 b 921 385 847 569 921 497 z "},"≥":{"ha":736,"x_min":0,"x_max":0,"o":"m 660 36 l 660 111 l 76 111 l 76 36 z m 76 126 l 660 364 l 660 411 l 76 649 l 76 568 l 519 388 l 76 207 z "},"≤":{"ha":736,"x_min":0,"x_max":0,"o":"m 660 36 l 660 111 l 76 111 l 76 36 z m 660 207 l 217 388 l 660 568 l 660 649 l 76 411 l 76 364 l 660 126 z "},"◊":{"ha":724,"x_min":0,"x_max":0,"o":"m 388 0 l 682 463 l 682 510 l 388 972 l 336 972 l 42 510 l 42 463 l 336 0 z m 115 486 l 361 872 l 608 486 l 361 99 z "},"‰":{"ha":1646,"x_min":0,"x_max":0,"o":"m 669 235 b 911 -14 669 97 772 -14 b 1115 100 1000 -14 1074 31 b 1321 -14 1157 31 1232 -14 b 1563 235 1460 -14 1563 97 b 1321 483 1563 372 1460 483 b 1115 369 1232 483 1157 438 b 911 483 1074 438 1000 483 b 669 235 772 483 669 372 z m 83 738 b 325 489 83 600 186 489 b 567 738 464 489 567 600 b 325 986 567 875 464 986 b 83 738 186 986 83 875 z m 1079 235 b 911 56 1079 136 1006 56 b 743 235 817 56 743 136 b 911 414 743 333 817 414 b 1079 235 1006 414 1079 333 z m 493 738 b 325 558 493 639 419 558 b 157 738 231 558 157 639 b 325 917 157 836 231 917 b 493 738 419 917 493 836 z m 371 0 l 938 972 l 865 972 l 299 0 z m 1489 235 b 1321 56 1489 136 1415 56 b 1153 235 1226 56 1153 136 b 1321 414 1153 333 1226 414 b 1489 235 1415 414 1489 333 z "},"√":{"ha":775,"x_min":0,"x_max":0,"o":"m 682 972 l 393 146 l 199 633 l -14 633 l -14 558 l 149 558 l 371 0 l 422 0 l 761 972 z "},"˛":{"ha":431,"x_min":0,"x_max":0,"o":"m 150 14 b 97 -142 143 7 97 -53 b 257 -306 97 -233 157 -306 b 333 -293 292 -306 324 -297 l 319 -225 b 264 -232 307 -228 288 -232 b 175 -135 224 -232 175 -212 b 231 14 175 -57 221 3 z "},"Ω":{"ha":1056,"x_min":0,"x_max":0,"o":"m 528 911 b 935 493 750 911 935 733 b 708 47 935 203 708 47 l 708 0 l 1014 0 l 1014 75 l 853 75 b 1014 493 853 75 1014 240 b 528 986 1014 764 808 986 b 42 493 247 986 42 764 b 203 75 42 240 203 75 l 42 75 l 42 0 l 347 0 l 347 47 b 121 493 347 47 121 203 b 528 911 121 733 306 911 z "},"€":{"ha":850,"x_min":0,"x_max":0,"o":"m 7 557 l 107 557 b 104 486 106 533 104 510 b 107 417 104 463 106 439 l 7 417 l 7 342 l 119 342 b 531 -14 167 132 317 -14 b 843 147 657 -14 764 32 l 776 193 b 528 65 708 101 642 65 b 206 342 364 65 247 179 l 590 342 l 590 417 l 192 417 b 188 486 189 439 188 463 b 192 557 188 510 189 533 l 590 557 l 590 632 l 204 632 b 522 907 246 792 356 907 b 749 778 619 907 692 864 l 817 824 b 522 986 747 931 647 986 b 119 632 311 986 165 838 l 7 632 z "},"˝":{"ha":597,"x_min":0,"x_max":0,"o":"m 188 931 l 97 736 l 160 736 l 292 931 z m 396 931 l 306 736 l 368 736 l 500 931 z "},"˘":{"ha":542,"x_min":0,"x_max":0,"o":"m 375 944 b 271 840 375 888 328 840 b 167 944 214 840 167 888 l 97 944 b 271 771 97 849 175 771 b 444 944 367 771 444 849 z "},"@":{"ha":1389,"x_min":0,"x_max":0,"o":"m 867 239 b 682 124 838 179 775 124 b 464 347 560 124 464 221 b 682 571 464 476 563 571 b 867 456 774 571 838 515 z m 883 144 b 1053 49 915 76 985 49 b 1292 379 1208 49 1292 200 b 704 958 1292 728 1029 958 b 97 347 368 958 97 685 b 704 -264 97 10 368 -264 b 1056 -147 836 -264 960 -221 l 1013 -82 b 706 -189 928 -147 821 -189 b 176 347 415 -189 176 47 b 694 883 176 643 408 883 b 1213 379 981 883 1213 693 b 1054 124 1213 235 1161 124 b 946 251 971 124 946 181 l 946 632 l 867 632 l 867 565 b 682 646 821 619 747 646 b 492 581 608 646 540 619 b 385 347 424 526 385 442 b 492 114 385 253 424 168 b 682 49 540 75 608 49 b 883 144 776 49 844 90 z "},"º":{"ha":564,"x_min":0,"x_max":0,"o":"m 69 771 b 282 556 69 653 157 556 b 494 771 407 556 494 653 b 282 986 494 889 407 986 b 69 771 157 986 69 889 z m 138 771 b 282 922 138 853 197 922 b 426 771 364 922 426 853 b 282 619 426 689 364 619 b 138 771 200 619 138 689 z "},"ª":{"ha":564,"x_min":0,"x_max":0,"o":"m 413 679 b 288 619 383 646 342 619 b 138 771 197 619 138 686 b 288 922 138 856 197 922 b 413 863 342 922 383 896 z m 286 556 b 413 610 350 556 394 588 l 413 569 l 481 569 l 481 972 l 413 972 l 413 932 b 286 986 394 954 350 986 b 69 771 160 986 69 892 b 286 556 69 650 160 556 z "},"®":{"ha":1167,"x_min":0,"x_max":0,"o":"m 97 486 b 583 0 97 218 315 0 b 1069 486 851 0 1069 218 b 583 972 1069 754 851 972 b 97 486 315 972 97 754 z m 163 486 b 583 907 163 717 353 907 b 1004 486 814 907 1004 717 b 583 65 1004 256 814 65 b 163 486 353 65 163 256 z m 797 224 l 621 485 b 717 522 668 489 694 500 b 757 619 742 547 757 582 b 717 715 757 657 742 690 b 593 756 692 740 658 756 l 410 756 l 410 224 l 475 224 l 475 485 l 544 485 l 724 224 z m 475 544 l 475 694 l 589 694 b 674 668 640 694 660 685 b 692 619 685 656 692 638 b 674 571 692 601 685 583 b 589 544 660 554 640 544 z "},"©":{"ha":1167,"x_min":0,"x_max":0,"o":"m 767 694 b 589 764 722 736 663 764 b 325 489 438 764 325 643 b 593 215 325 336 435 215 b 783 286 668 215 738 244 l 746 335 b 593 276 707 301 664 276 b 390 489 472 276 390 365 b 589 703 390 618 476 703 b 729 646 650 703 694 678 z m 97 486 b 583 0 97 218 315 0 b 1069 486 851 0 1069 218 b 583 972 1069 754 851 972 b 97 486 315 972 97 754 z m 163 486 b 583 907 163 717 353 907 b 1004 486 814 907 1004 717 b 583 65 1004 256 814 65 b 163 486 353 65 163 256 z "},"™":{"ha":1163,"x_min":0,"x_max":0,"o":"m 97 972 l 97 911 l 249 911 l 249 440 l 314 440 l 314 911 l 465 911 l 465 972 z m 1000 815 l 1000 440 l 1065 440 l 1065 972 l 1028 972 l 796 606 l 564 972 l 526 972 l 526 440 l 592 440 l 592 815 l 776 521 l 815 521 z "},"B":{"ha":840,"x_min":0,"x_max":0,"o":"m 708 735 b 633 907 708 803 679 864 b 443 972 590 947 533 972 l 125 972 l 125 0 l 475 0 b 696 74 576 0 644 28 b 792 288 754 126 792 201 b 621 551 792 404 721 506 b 708 735 674 594 708 661 z m 471 497 b 644 438 556 497 607 474 b 708 288 683 400 708 346 b 644 138 708 229 683 175 b 471 79 607 101 556 79 l 208 79 l 208 497 z m 208 576 l 208 893 l 439 893 b 583 842 513 893 554 872 b 625 735 610 814 625 776 b 583 628 625 693 610 656 b 439 576 554 597 513 576 z "},"»":{"ha":743,"x_min":0,"x_max":0,"o":"m 56 583 l 275 326 l 56 69 l 154 69 l 354 303 l 354 350 l 154 583 z m 333 583 l 553 326 l 333 69 l 432 69 l 632 303 l 632 350 l 432 583 z "},"É":{"ha":722,"x_min":0,"x_max":0,"o":"m 653 893 l 653 972 l 125 972 l 125 0 l 667 0 l 667 79 l 208 79 l 208 497 l 556 497 l 556 576 l 208 576 l 208 893 z m 443 1222 l 353 1028 l 415 1028 l 547 1222 z "},"←":{"ha":1010,"x_min":0,"x_max":0,"o":"m 193 381 l 479 665 l 383 665 l 83 367 l 83 326 l 383 28 l 479 28 l 193 313 l 926 313 l 926 381 z "},"→":{"ha":1010,"x_min":0,"x_max":0,"o":"m 83 381 l 83 313 l 817 313 l 531 28 l 626 28 l 926 326 l 926 367 l 626 665 l 531 665 l 817 381 z "},"↖":{"ha":800,"x_min":0,"x_max":0,"o":"m 151 518 l 668 0 l 717 47 l 200 567 l 606 567 l 538 633 l 111 633 l 83 606 l 83 179 l 151 111 z "},"↗":{"ha":800,"x_min":0,"x_max":0,"o":"m 649 111 l 717 179 l 717 606 l 689 633 l 263 633 l 194 567 l 600 567 l 83 47 l 132 0 l 649 518 z "},"⁰":{"ha":444,"x_min":0,"x_max":0,"o":"m 396 722 b 222 986 396 867 349 986 b 49 722 96 986 49 867 b 222 458 49 578 96 458 b 396 722 349 458 396 578 z m 114 722 b 222 925 114 828 140 925 b 331 722 304 925 331 828 b 222 519 331 617 304 519 b 114 722 140 519 114 617 z "},"⁴":{"ha":417,"x_min":0,"x_max":0,"o":"m 14 590 l 254 590 l 254 472 l 319 472 l 319 590 l 403 590 l 403 651 l 319 651 l 319 972 l 282 972 l 14 624 z m 114 651 l 254 833 l 254 651 z "},"⁵":{"ha":361,"x_min":0,"x_max":0,"o":"m 160 806 b 114 801 143 806 128 804 l 126 911 l 306 911 l 306 972 l 68 972 l 42 725 l 79 719 b 156 746 100 735 126 746 b 268 632 222 746 268 694 b 158 519 268 571 224 519 b 63 569 114 519 81 544 l 14 532 b 160 458 44 488 96 458 b 333 632 261 458 333 536 b 160 806 333 726 257 806 z "},"⁶":{"ha":414,"x_min":0,"x_max":0,"o":"m 93 631 b 124 717 93 661 107 692 b 204 743 147 733 176 743 b 314 631 268 743 314 693 b 204 519 314 569 268 519 b 93 631 139 519 93 569 z m 289 972 l 215 972 l 92 789 b 28 631 58 739 28 688 b 204 458 28 538 101 458 b 379 631 306 458 379 536 b 211 804 379 728 300 804 b 175 800 199 804 179 801 z "},"⁷":{"ha":354,"x_min":0,"x_max":0,"o":"m 104 472 l 333 939 l 333 972 l 21 972 l 21 911 l 250 911 l 35 472 z "},"⁸":{"ha":407,"x_min":0,"x_max":0,"o":"m 203 721 b 313 618 268 721 313 676 b 203 519 313 564 268 519 b 93 618 139 519 93 564 b 203 721 93 676 140 721 z m 203 925 b 281 853 247 925 281 894 b 203 781 281 811 247 781 b 126 853 161 781 126 811 b 203 925 126 894 161 925 z m 203 458 b 379 618 303 458 379 532 b 297 756 379 678 344 729 b 346 853 326 776 346 815 b 203 986 346 929 283 986 b 61 853 124 986 61 929 b 110 756 61 815 81 776 b 28 618 63 729 28 678 b 203 458 28 532 103 458 z "},"⁹":{"ha":414,"x_min":0,"x_max":0,"o":"m 314 814 b 283 728 314 783 300 753 b 203 701 260 711 231 701 b 93 814 139 701 93 751 b 203 925 93 875 139 925 b 314 814 268 925 314 875 z m 118 472 l 192 472 l 315 656 b 379 814 349 706 379 757 b 203 986 379 907 306 986 b 28 814 101 986 28 908 b 196 640 28 717 107 640 b 232 644 208 640 228 643 z "},"₀":{"ha":444,"x_min":0,"x_max":0,"o":"m 396 250 b 222 514 396 394 349 514 b 49 250 96 514 49 394 b 222 -14 49 106 96 -14 b 396 250 349 -14 396 106 z m 114 250 b 222 453 114 356 140 453 b 331 250 304 453 331 356 b 222 47 331 144 304 47 b 114 250 140 47 114 144 z "},"₁":{"ha":285,"x_min":0,"x_max":0,"o":"m 143 415 l 143 0 l 208 0 l 208 500 l 171 500 l 42 431 l 42 364 z "},"₂":{"ha":386,"x_min":0,"x_max":0,"o":"m 97 379 b 189 453 114 424 144 453 b 274 367 238 453 274 413 b 208 244 274 322 249 293 l 35 33 l 35 0 l 344 0 l 344 61 l 143 61 l 265 211 b 339 367 303 256 339 303 b 189 514 339 447 274 514 b 40 403 142 514 71 497 z "},"₃":{"ha":392,"x_min":0,"x_max":0,"o":"m 324 467 l 324 500 l 38 500 l 38 439 l 221 439 l 110 296 l 110 263 b 165 272 119 267 139 272 b 285 158 231 272 285 228 b 174 47 285 94 236 47 b 67 108 133 47 88 69 l 14 71 b 174 -14 44 21 107 -14 b 350 158 276 -14 350 65 b 299 281 350 206 331 249 b 214 328 275 304 247 319 z "},"₄":{"ha":417,"x_min":0,"x_max":0,"o":"m 14 118 l 254 118 l 254 0 l 319 0 l 319 118 l 403 118 l 403 179 l 319 179 l 319 500 l 282 500 l 14 151 z m 114 179 l 254 361 l 254 179 z "},"₅":{"ha":361,"x_min":0,"x_max":0,"o":"m 160 333 b 114 329 143 333 128 332 l 126 439 l 306 439 l 306 500 l 68 500 l 42 253 l 79 247 b 156 274 100 263 126 274 b 268 160 222 274 268 222 b 158 47 268 99 224 47 b 63 97 114 47 81 72 l 14 60 b 160 -14 44 15 96 -14 b 333 160 261 -14 333 64 b 160 333 333 254 257 333 z "},"₆":{"ha":414,"x_min":0,"x_max":0,"o":"m 93 158 b 124 244 93 189 107 219 b 204 271 147 261 176 271 b 314 158 268 271 314 221 b 204 47 314 97 268 47 b 93 158 139 47 93 97 z m 289 500 l 215 500 l 92 317 b 28 158 58 267 28 215 b 204 -14 28 65 101 -14 b 379 158 306 -14 379 64 b 211 332 379 256 300 332 b 175 328 199 332 179 329 z "},"₇":{"ha":354,"x_min":0,"x_max":0,"o":"m 104 0 l 333 467 l 333 500 l 21 500 l 21 439 l 250 439 l 35 0 z "},"₈":{"ha":407,"x_min":0,"x_max":0,"o":"m 203 249 b 313 146 268 249 313 204 b 203 47 313 92 268 47 b 93 146 139 47 93 92 b 203 249 93 204 140 249 z m 203 453 b 281 381 247 453 281 422 b 203 308 281 339 247 308 b 126 381 161 308 126 339 b 203 453 126 422 161 453 z m 203 -14 b 379 146 303 -14 379 60 b 297 283 379 206 344 257 b 346 381 326 304 346 343 b 203 514 346 457 283 514 b 61 381 124 514 61 457 b 110 283 61 343 81 304 b 28 146 63 257 28 206 b 203 -14 28 60 103 -14 z "},"₉":{"ha":414,"x_min":0,"x_max":0,"o":"m 314 342 b 283 256 314 311 300 281 b 203 229 260 239 231 229 b 93 342 139 229 93 279 b 203 453 93 403 139 453 b 314 342 268 453 314 403 z m 118 0 l 192 0 l 315 183 b 379 342 349 233 379 285 b 203 514 379 435 306 514 b 28 342 101 514 28 436 b 196 168 28 244 107 168 b 232 172 208 168 228 171 z "},"½":{"ha":824,"x_min":0,"x_max":0,"o":"m 128 0 l 694 972 l 622 972 l 56 0 z m 143 888 l 143 472 l 208 472 l 208 972 l 171 972 l 42 903 l 42 836 z m 535 379 b 626 453 551 424 582 453 b 711 367 675 453 711 413 b 646 244 711 322 686 293 l 472 33 l 472 0 l 782 0 l 782 61 l 581 61 l 703 211 b 776 367 740 256 776 303 b 626 514 776 447 711 514 b 478 403 579 514 508 497 z "},"¼":{"ha":771,"x_min":0,"x_max":0,"o":"m 368 118 l 608 118 l 608 0 l 674 0 l 674 118 l 757 118 l 757 179 l 674 179 l 674 500 l 636 500 l 368 151 z m 468 179 l 608 361 l 608 179 z m 128 0 l 694 972 l 622 972 l 56 0 z m 143 888 l 143 472 l 208 472 l 208 972 l 171 972 l 42 903 l 42 836 z "},"¹":{"ha":285,"x_min":0,"x_max":0,"o":"m 143 888 l 143 472 l 208 472 l 208 972 l 171 972 l 42 903 l 42 836 z "},"¾":{"ha":838,"x_min":0,"x_max":0,"o":"m 435 118 l 675 118 l 675 0 l 740 0 l 740 118 l 824 118 l 824 179 l 740 179 l 740 500 l 703 500 l 435 151 z m 535 179 l 675 361 l 675 179 z m 194 0 l 761 972 l 689 972 l 122 0 z m 324 939 l 324 972 l 38 972 l 38 911 l 221 911 l 110 768 l 110 735 b 165 744 119 739 139 744 b 285 631 231 744 285 700 b 174 519 285 567 236 519 b 67 581 133 519 88 542 l 14 543 b 174 458 44 493 107 458 b 350 631 276 458 350 538 b 299 753 350 678 331 721 b 214 800 275 776 247 792 z "},"³":{"ha":392,"x_min":0,"x_max":0,"o":"m 324 939 l 324 972 l 38 972 l 38 911 l 221 911 l 110 768 l 110 735 b 165 744 119 739 139 744 b 285 631 231 744 285 700 b 174 519 285 567 236 519 b 67 581 133 519 88 542 l 14 543 b 174 458 44 493 107 458 b 350 631 276 458 350 538 b 299 753 350 678 331 721 b 214 800 275 776 247 792 z "},"²":{"ha":386,"x_min":0,"x_max":0,"o":"m 97 851 b 189 925 114 896 144 925 b 274 839 238 925 274 885 b 208 717 274 794 249 765 l 35 506 l 35 472 l 344 472 l 344 533 l 143 533 l 265 683 b 339 839 303 728 339 775 b 189 986 339 919 274 986 b 40 875 142 986 71 969 z "},"↙":{"ha":800,"x_min":0,"x_max":0,"o":"m 151 522 l 83 454 l 83 28 l 111 0 l 538 0 l 606 67 l 200 67 l 717 586 l 668 633 l 151 115 z "},"↘":{"ha":800,"x_min":0,"x_max":0,"o":"m 649 115 l 132 633 l 83 586 l 600 67 l 194 67 l 263 0 l 689 0 l 717 28 l 717 454 l 649 522 z "},"ﬀ":{"ha":958,"x_min":0,"x_max":0,"o":"m 931 993 b 869 1000 911 997 890 1000 b 689 922 797 1000 732 974 b 636 729 656 882 636 826 l 636 633 l 257 633 l 257 733 b 286 865 257 808 268 839 b 410 925 314 906 358 925 b 457 919 426 925 442 924 l 472 993 b 411 1000 453 997 432 1000 b 231 922 339 1000 274 974 b 178 729 197 882 178 826 l 178 633 l 14 633 l 14 558 l 178 558 l 178 0 l 257 0 l 257 558 l 636 558 l 636 0 l 715 0 l 715 558 l 931 558 l 931 633 l 715 633 l 715 733 b 744 865 715 808 726 839 b 868 925 772 906 817 925 b 915 919 885 925 900 924 z "},"ﬃ":{"ha":1246,"x_min":0,"x_max":0,"o":"m 1049 558 l 1049 0 l 1128 0 l 1128 633 l 701 633 l 701 733 b 731 865 701 808 713 839 b 854 925 758 906 803 925 b 901 919 871 925 886 924 l 917 993 b 856 1000 897 997 876 1000 b 675 922 783 1000 718 974 b 622 729 642 882 622 826 l 622 633 l 257 633 l 257 733 b 286 865 257 808 268 839 b 410 925 314 906 358 925 b 457 919 426 925 442 924 l 472 993 b 411 1000 453 997 432 1000 b 231 922 339 1000 274 974 b 178 729 197 882 178 826 l 178 633 l 14 633 l 14 558 l 178 558 l 178 0 l 257 0 l 257 558 l 622 558 l 622 0 l 701 0 l 701 558 z m 1018 853 b 1088 783 1018 814 1049 783 b 1158 853 1126 783 1158 814 b 1088 924 1158 892 1126 924 b 1018 853 1049 924 1018 892 z "},"ﬄ":{"ha":1246,"x_min":0,"x_max":0,"o":"m 1049 558 l 1049 0 l 1128 0 l 1128 986 l 1049 986 l 1049 633 l 701 633 l 701 733 b 731 865 701 808 713 839 b 854 925 758 906 803 925 b 901 919 871 925 886 924 l 917 993 b 856 1000 897 997 876 1000 b 675 922 783 1000 718 974 b 622 729 642 882 622 826 l 622 633 l 257 633 l 257 733 b 286 865 257 808 268 839 b 410 925 314 906 358 925 b 457 919 426 925 442 924 l 472 993 b 411 1000 453 997 432 1000 b 231 922 339 1000 274 974 b 178 729 197 882 178 826 l 178 633 l 14 633 l 14 558 l 178 558 l 178 0 l 257 0 l 257 558 l 622 558 l 622 0 l 701 0 l 701 558 z "},"¤":{"ha":750,"x_min":0,"x_max":0,"o":"m 103 488 b 160 322 103 425 125 368 l 56 219 l 107 168 l 211 271 b 375 215 257 236 314 215 b 540 271 438 215 494 236 l 643 168 l 694 219 l 592 322 b 647 488 626 368 647 425 b 592 651 647 549 626 606 l 694 756 l 643 807 l 540 703 b 375 760 494 738 438 760 b 211 703 314 760 257 738 l 107 807 l 56 756 l 160 651 b 103 488 125 606 103 549 z m 182 488 b 375 681 182 594 268 681 b 568 488 482 681 568 594 b 375 294 568 381 482 294 b 182 488 268 294 182 381 z "},"∕":{"ha":653,"x_min":0,"x_max":0,"o":"m 79 0 l 646 972 l 574 972 l 7 0 z "},"C":{"ha":951,"x_min":0,"x_max":0,"o":"m 864 218 b 544 65 796 129 678 65 b 132 486 303 65 132 250 b 536 907 132 719 303 907 b 832 781 657 907 764 856 l 889 838 b 536 986 804 931 675 986 b 49 486 256 986 49 767 b 549 -14 49 199 258 -14 b 924 165 699 -14 840 58 z "},"D":{"ha":979,"x_min":0,"x_max":0,"o":"m 847 486 b 694 161 847 356 790 236 b 399 79 625 107 535 79 l 208 79 l 208 893 l 399 893 b 694 811 535 893 625 865 b 847 486 790 736 847 617 z m 931 486 b 738 881 931 647 857 792 b 403 972 658 939 557 972 l 125 972 l 125 0 l 403 0 b 738 92 557 0 658 33 b 931 486 857 181 931 325 z "},"Ā":{"ha":908,"x_min":0,"x_max":0,"o":"m 260 1161 l 260 1092 l 649 1092 l 649 1161 z m 426 972 l 7 0 l 90 0 l 218 293 l 690 293 l 818 0 l 901 0 l 482 972 z m 454 842 l 656 372 l 251 372 z "},"ā":{"ha":808,"x_min":0,"x_max":0,"o":"m 208 869 l 208 800 l 597 800 l 597 869 z m 690 0 l 690 633 l 614 633 l 614 546 b 382 647 557 610 474 647 b 181 576 306 647 233 619 b 63 317 108 515 63 422 b 197 46 63 203 114 104 b 386 -14 260 1 326 -14 b 614 93 485 -14 567 29 l 614 0 z m 611 200 b 385 61 561 114 478 61 b 242 108 331 61 282 81 b 142 317 181 151 142 229 b 231 518 142 399 175 472 b 383 572 275 554 331 572 b 611 444 500 572 583 492 z "},"Ă":{"ha":908,"x_min":0,"x_max":0,"o":"m 558 1236 b 454 1132 558 1179 511 1132 b 350 1236 397 1132 350 1179 l 281 1236 b 454 1063 281 1140 358 1063 b 628 1236 550 1063 628 1140 z m 426 972 l 7 0 l 90 0 l 218 293 l 690 293 l 818 0 l 901 0 l 482 972 z m 454 842 l 656 372 l 251 372 z "},"ă":{"ha":808,"x_min":0,"x_max":0,"o":"m 511 944 b 407 840 511 888 464 840 b 303 944 350 840 303 888 l 233 944 b 407 771 233 849 311 771 b 581 944 503 771 581 849 z m 690 0 l 690 633 l 614 633 l 614 546 b 382 647 557 610 474 647 b 181 576 306 647 233 619 b 63 317 108 515 63 422 b 197 46 63 203 114 104 b 386 -14 260 1 326 -14 b 614 93 485 -14 567 29 l 614 0 z m 611 200 b 385 61 561 114 478 61 b 242 108 331 61 282 81 b 142 317 181 151 142 229 b 231 518 142 399 175 472 b 383 572 275 554 331 572 b 611 444 500 572 583 492 z "},"Ą":{"ha":908,"x_min":0,"x_max":0,"o":"m 454 842 l 656 372 l 251 372 z m 819 -3 b 779 -142 803 -28 779 -78 b 939 -306 779 -233 839 -306 b 1015 -293 974 -306 1006 -297 l 1001 -225 b 946 -232 989 -228 969 -232 b 857 -135 906 -232 857 -212 b 901 0 857 -74 885 -24 l 482 972 l 426 972 l 7 0 l 90 0 l 218 293 l 690 293 z "},"ą":{"ha":808,"x_min":0,"x_max":0,"o":"m 690 0 l 690 633 l 614 633 l 614 546 b 382 647 557 610 474 647 b 181 576 306 647 233 619 b 63 317 108 515 63 422 b 197 46 63 203 114 104 b 386 -14 260 1 326 -14 b 614 93 485 -14 567 29 l 614 6 b 568 -142 596 -21 568 -74 b 728 -306 568 -233 628 -306 b 804 -293 763 -306 794 -297 l 790 -225 b 735 -232 778 -228 758 -232 b 646 -135 694 -232 646 -212 b 690 0 646 -74 674 -24 z m 611 200 b 385 61 561 114 478 61 b 242 108 331 61 282 81 b 142 317 181 151 142 229 b 231 518 142 399 175 472 b 383 572 275 554 331 572 b 611 444 500 572 583 492 z "},"Ć":{"ha":951,"x_min":0,"x_max":0,"o":"m 864 218 b 544 65 796 129 678 65 b 132 486 303 65 132 250 b 536 907 132 719 303 907 b 832 781 657 907 764 856 l 889 838 b 536 986 804 931 675 986 b 49 486 256 986 49 767 b 549 -14 49 199 258 -14 b 924 165 699 -14 840 58 z m 592 1222 l 501 1028 l 564 1028 l 696 1222 z "},"ć":{"ha":694,"x_min":0,"x_max":0,"o":"m 428 931 l 338 736 l 400 736 l 532 931 z m 596 149 b 401 61 542 92 475 61 b 142 317 253 61 142 175 b 390 572 142 461 257 572 b 582 492 471 572 535 538 l 632 549 b 390 647 575 606 496 647 b 63 317 200 647 63 494 b 403 -14 63 114 226 -14 b 653 96 500 -14 590 26 z "},"Ĉ":{"ha":951,"x_min":0,"x_max":0,"o":"m 864 218 b 544 65 796 129 678 65 b 132 486 303 65 132 250 b 536 907 132 719 303 907 b 832 781 657 907 764 856 l 889 838 b 536 986 804 931 675 986 b 49 486 256 986 49 767 b 549 -14 49 199 258 -14 b 924 165 699 -14 840 58 z m 536 1158 l 654 1028 l 717 1028 l 585 1222 l 488 1222 l 356 1028 l 418 1028 z "},"ĉ":{"ha":694,"x_min":0,"x_max":0,"o":"m 379 867 l 497 736 l 560 736 l 428 931 l 331 931 l 199 736 l 261 736 z m 596 149 b 401 61 542 92 475 61 b 142 317 253 61 142 175 b 390 572 142 461 257 572 b 582 492 471 572 535 538 l 632 549 b 390 647 575 606 496 647 b 63 317 200 647 63 494 b 403 -14 63 114 226 -14 b 653 96 500 -14 590 26 z "},"Ċ":{"ha":951,"x_min":0,"x_max":0,"o":"m 864 218 b 544 65 796 129 678 65 b 132 486 303 65 132 250 b 536 907 132 719 303 907 b 832 781 657 907 764 856 l 889 838 b 536 986 804 931 675 986 b 49 486 256 986 49 767 b 549 -14 49 199 258 -14 b 924 165 699 -14 840 58 z m 467 1144 b 536 1075 467 1106 497 1075 b 607 1144 575 1075 607 1106 b 536 1215 607 1183 575 1215 b 467 1144 497 1215 467 1183 z "},"ċ":{"ha":694,"x_min":0,"x_max":0,"o":"m 303 853 b 372 783 303 814 333 783 b 443 853 411 783 443 814 b 372 924 443 892 411 924 b 303 853 333 924 303 892 z m 596 149 b 401 61 542 92 475 61 b 142 317 253 61 142 175 b 390 572 142 461 257 572 b 582 492 471 572 535 538 l 632 549 b 390 647 575 606 496 647 b 63 317 200 647 63 494 b 403 -14 63 114 226 -14 b 653 96 500 -14 590 26 z "},"Č":{"ha":951,"x_min":0,"x_max":0,"o":"m 864 218 b 544 65 796 129 678 65 b 132 486 303 65 132 250 b 536 907 132 719 303 907 b 832 781 657 907 764 856 l 889 838 b 536 986 804 931 675 986 b 49 486 256 986 49 767 b 549 -14 49 199 258 -14 b 924 165 699 -14 840 58 z m 418 1236 l 356 1236 l 488 1042 l 585 1042 l 717 1236 l 654 1236 l 536 1106 z "},"č":{"ha":694,"x_min":0,"x_max":0,"o":"m 254 944 l 192 944 l 324 750 l 421 750 l 553 944 l 490 944 l 372 814 z m 596 149 b 401 61 542 92 475 61 b 142 317 253 61 142 175 b 390 572 142 461 257 572 b 582 492 471 572 535 538 l 632 549 b 390 647 575 606 496 647 b 63 317 200 647 63 494 b 403 -14 63 114 226 -14 b 653 96 500 -14 590 26 z "},"Ď":{"ha":979,"x_min":0,"x_max":0,"o":"m 847 486 b 694 161 847 356 790 236 b 399 79 625 107 535 79 l 208 79 l 208 893 l 399 893 b 694 811 535 893 625 865 b 847 486 790 736 847 617 z m 931 486 b 738 881 931 647 857 792 b 403 972 658 939 557 972 l 125 972 l 125 0 l 403 0 b 738 92 557 0 658 33 b 931 486 857 181 931 325 z m 321 1236 l 258 1236 l 390 1042 l 488 1042 l 619 1236 l 557 1236 l 439 1106 z "},"ď":{"ha":871,"x_min":0,"x_max":0,"o":"m 836 972 l 746 778 l 808 778 l 940 972 z m 611 200 b 385 61 561 114 478 61 b 242 108 331 61 282 81 b 142 317 181 151 142 229 b 231 518 142 399 175 472 b 383 572 275 554 331 572 b 611 444 500 572 583 492 z m 386 -14 b 614 93 485 -14 567 29 l 614 0 l 690 0 l 690 986 l 611 986 l 611 549 b 382 647 551 613 469 647 b 181 576 306 647 233 619 b 63 317 108 515 63 422 b 197 46 63 203 114 104 b 386 -14 260 1 326 -14 z "},"Đ":{"ha":979,"x_min":0,"x_max":0,"o":"m -14 497 l 125 497 l 125 0 l 403 0 b 738 92 557 0 658 33 b 931 486 857 181 931 325 b 738 881 931 647 857 792 b 403 972 658 939 557 972 l 125 972 l 125 576 l -14 576 z m 847 486 b 694 161 847 356 790 236 b 399 79 625 107 535 79 l 208 79 l 208 497 l 486 497 l 486 576 l 208 576 l 208 893 l 399 893 b 694 811 535 893 625 865 b 847 486 790 736 847 617 z "},"đ":{"ha":815,"x_min":0,"x_max":0,"o":"m 386 -14 b 614 93 485 -14 567 29 l 614 0 l 690 0 l 690 765 l 808 765 l 808 840 l 690 840 l 690 986 l 611 986 l 611 840 l 431 840 l 431 765 l 611 765 l 611 549 b 382 647 551 613 469 647 b 181 576 306 647 233 619 b 63 317 108 515 63 422 b 197 46 63 203 114 104 b 386 -14 260 1 326 -14 z m 611 200 b 385 61 561 114 478 61 b 242 108 331 61 282 81 b 142 317 181 151 142 229 b 231 518 142 399 175 472 b 383 572 275 554 331 572 b 611 444 500 572 583 492 z "},"Ē":{"ha":722,"x_min":0,"x_max":0,"o":"m 653 893 l 653 972 l 125 972 l 125 0 l 667 0 l 667 79 l 208 79 l 208 497 l 556 497 l 556 576 l 208 576 l 208 893 z m 194 1161 l 194 1092 l 583 1092 l 583 1161 z "},"ē":{"ha":722,"x_min":0,"x_max":0,"o":"m 185 869 l 185 800 l 574 800 l 574 869 z m 365 572 b 578 382 475 572 561 493 l 146 382 b 365 572 169 492 253 572 z m 583 156 b 381 61 533 94 464 61 b 142 310 235 61 147 175 l 658 310 b 660 338 660 322 660 332 b 365 647 660 514 535 647 b 63 317 186 647 63 499 b 381 -14 63 119 203 -14 b 639 103 501 -14 592 43 z "},"Ė":{"ha":722,"x_min":0,"x_max":0,"o":"m 653 893 l 653 972 l 125 972 l 125 0 l 667 0 l 667 79 l 208 79 l 208 497 l 556 497 l 556 576 l 208 576 l 208 893 z m 319 1144 b 389 1075 319 1106 350 1075 b 460 1144 428 1075 460 1106 b 389 1215 460 1183 428 1215 b 319 1144 350 1215 319 1183 z "},"ė":{"ha":722,"x_min":0,"x_max":0,"o":"m 310 853 b 379 783 310 814 340 783 b 450 853 418 783 450 814 b 379 924 450 892 418 924 b 310 853 340 924 310 892 z m 365 572 b 578 382 475 572 561 493 l 146 382 b 365 572 169 492 253 572 z m 583 156 b 381 61 533 94 464 61 b 142 310 235 61 147 175 l 658 310 b 660 338 660 322 660 332 b 365 647 660 514 535 647 b 63 317 186 647 63 499 b 381 -14 63 119 203 -14 b 639 103 501 -14 592 43 z "},"Ę":{"ha":722,"x_min":0,"x_max":0,"o":"m 653 893 l 653 972 l 125 972 l 125 0 l 438 0 b 396 -142 422 -24 396 -74 b 556 -306 396 -233 456 -306 b 632 -293 590 -306 622 -297 l 618 -225 b 563 -232 606 -228 586 -232 b 474 -135 522 -232 474 -212 b 518 0 474 -74 501 -24 l 667 0 l 667 79 l 208 79 l 208 497 l 556 497 l 556 576 l 208 576 l 208 893 z "},"ę":{"ha":722,"x_min":0,"x_max":0,"o":"m 583 156 b 381 61 533 94 464 61 b 142 310 235 61 147 175 l 658 310 b 660 338 660 322 660 332 b 365 647 660 514 535 647 b 63 317 186 647 63 499 b 381 -14 63 119 203 -14 b 406 -12 389 -14 397 -14 b 374 -142 390 -39 374 -85 b 533 -306 374 -233 433 -306 b 610 -293 568 -306 600 -297 l 596 -225 b 540 -232 583 -228 564 -232 b 451 -135 500 -232 451 -212 b 499 6 451 -68 483 -14 b 639 103 561 26 608 64 z m 365 572 b 578 382 475 572 561 493 l 146 382 b 365 572 169 492 253 572 z "},"Ě":{"ha":722,"x_min":0,"x_max":0,"o":"m 653 893 l 653 972 l 125 972 l 125 0 l 667 0 l 667 79 l 208 79 l 208 497 l 556 497 l 556 576 l 208 576 l 208 893 z m 271 1236 l 208 1236 l 340 1042 l 438 1042 l 569 1236 l 507 1236 l 389 1106 z "},"ě":{"ha":722,"x_min":0,"x_max":0,"o":"m 261 944 l 199 944 l 331 750 l 428 750 l 560 944 l 497 944 l 379 814 z m 365 572 b 578 382 475 572 561 493 l 146 382 b 365 572 169 492 253 572 z m 583 156 b 381 61 533 94 464 61 b 142 310 235 61 147 175 l 658 310 b 660 338 660 322 660 332 b 365 647 660 514 535 647 b 63 317 186 647 63 499 b 381 -14 63 119 203 -14 b 639 103 501 -14 592 43 z "},"Ĝ":{"ha":1014,"x_min":0,"x_max":0,"o":"m 840 188 b 544 65 769 114 663 65 b 132 486 303 65 132 250 b 536 907 132 719 303 907 b 832 781 657 907 764 856 l 889 838 b 536 986 804 931 675 986 b 49 486 256 986 49 767 b 549 -14 49 199 258 -14 b 924 167 699 -14 840 60 l 924 576 l 521 576 l 521 497 l 840 497 z m 536 1158 l 654 1028 l 717 1028 l 585 1222 l 488 1222 l 356 1028 l 418 1028 z "},"ĝ":{"ha":808,"x_min":0,"x_max":0,"o":"m 410 867 l 528 736 l 590 736 l 458 931 l 361 931 l 229 736 l 292 736 z m 690 3 l 690 633 l 614 633 l 614 546 b 382 647 557 610 474 647 b 181 576 306 647 233 619 b 63 317 108 515 63 422 b 197 46 63 203 114 104 b 386 -14 260 1 326 -14 b 611 90 485 -14 564 29 l 611 0 b 586 -164 611 -79 606 -125 b 382 -272 554 -226 489 -272 b 156 -150 281 -272 203 -225 l 93 -196 b 381 -347 157 -292 260 -347 b 656 -201 519 -347 610 -287 b 690 3 682 -151 690 -90 z m 611 200 b 385 61 561 114 478 61 b 242 108 331 61 282 81 b 142 317 181 151 142 229 b 231 518 142 399 175 472 b 383 572 275 554 331 572 b 611 444 500 572 583 492 z "},"Ğ":{"ha":1014,"x_min":0,"x_max":0,"o":"m 640 1236 b 536 1132 640 1179 593 1132 b 432 1236 479 1132 432 1179 l 363 1236 b 536 1063 363 1140 440 1063 b 710 1236 632 1063 710 1140 z m 840 188 b 544 65 769 114 663 65 b 132 486 303 65 132 250 b 536 907 132 719 303 907 b 832 781 657 907 764 856 l 889 838 b 536 986 804 931 675 986 b 49 486 256 986 49 767 b 549 -14 49 199 258 -14 b 924 167 699 -14 840 60 l 924 576 l 521 576 l 521 497 l 840 497 z "},"ğ":{"ha":808,"x_min":0,"x_max":0,"o":"m 511 944 b 407 840 511 888 464 840 b 303 944 350 840 303 888 l 233 944 b 407 771 233 849 311 771 b 581 944 503 771 581 849 z m 690 3 l 690 633 l 614 633 l 614 546 b 382 647 557 610 474 647 b 181 576 306 647 233 619 b 63 317 108 515 63 422 b 197 46 63 203 114 104 b 386 -14 260 1 326 -14 b 611 90 485 -14 564 29 l 611 0 b 586 -164 611 -79 606 -125 b 382 -272 554 -226 489 -272 b 156 -150 281 -272 203 -225 l 93 -196 b 381 -347 157 -292 260 -347 b 656 -201 519 -347 610 -287 b 690 3 682 -151 690 -90 z m 611 200 b 385 61 561 114 478 61 b 242 108 331 61 282 81 b 142 317 181 151 142 229 b 231 518 142 399 175 472 b 383 572 275 554 331 572 b 611 444 500 572 583 492 z "},"Ġ":{"ha":1014,"x_min":0,"x_max":0,"o":"m 840 188 b 544 65 769 114 663 65 b 132 486 303 65 132 250 b 536 907 132 719 303 907 b 832 781 657 907 764 856 l 889 838 b 536 986 804 931 675 986 b 49 486 256 986 49 767 b 549 -14 49 199 258 -14 b 924 167 699 -14 840 60 l 924 576 l 521 576 l 521 497 l 840 497 z m 467 1144 b 536 1075 467 1106 497 1075 b 607 1144 575 1075 607 1106 b 536 1215 607 1183 575 1215 b 467 1144 497 1215 467 1183 z "},"ġ":{"ha":808,"x_min":0,"x_max":0,"o":"m 351 853 b 421 783 351 814 382 783 b 492 853 460 783 492 814 b 421 924 492 892 460 924 b 351 853 382 924 351 892 z m 690 3 l 690 633 l 614 633 l 614 546 b 382 647 557 610 474 647 b 181 576 306 647 233 619 b 63 317 108 515 63 422 b 197 46 63 203 114 104 b 386 -14 260 1 326 -14 b 611 90 485 -14 564 29 l 611 0 b 586 -164 611 -79 606 -125 b 382 -272 554 -226 489 -272 b 156 -150 281 -272 203 -225 l 93 -196 b 381 -347 157 -292 260 -347 b 656 -201 519 -347 610 -287 b 690 3 682 -151 690 -90 z m 611 200 b 385 61 561 114 478 61 b 242 108 331 61 282 81 b 142 317 181 151 142 229 b 231 518 142 399 175 472 b 383 572 275 554 331 572 b 611 444 500 572 583 492 z "},"Ģ":{"ha":1014,"x_min":0,"x_max":0,"o":"m 840 188 b 544 65 769 114 663 65 b 132 486 303 65 132 250 b 536 907 132 719 303 907 b 832 781 657 907 764 856 l 889 838 b 536 986 804 931 675 986 b 49 486 256 986 49 767 b 549 -14 49 199 258 -14 b 924 167 699 -14 840 60 l 924 576 l 521 576 l 521 497 l 840 497 z m 500 -56 l 410 -250 l 472 -250 l 604 -56 z "},"ģ":{"ha":808,"x_min":0,"x_max":0,"o":"m 460 738 l 550 932 l 488 932 l 356 738 z m 690 3 l 690 633 l 614 633 l 614 546 b 382 647 557 610 474 647 b 181 576 306 647 233 619 b 63 317 108 515 63 422 b 197 46 63 203 114 104 b 386 -14 260 1 326 -14 b 611 90 485 -14 564 29 l 611 0 b 586 -164 611 -79 606 -125 b 382 -272 554 -226 489 -272 b 156 -150 281 -272 203 -225 l 93 -196 b 381 -347 157 -292 260 -347 b 656 -201 519 -347 610 -287 b 690 3 682 -151 690 -90 z m 611 200 b 385 61 561 114 478 61 b 242 108 331 61 282 81 b 142 317 181 151 142 229 b 231 518 142 399 175 472 b 383 572 275 554 331 572 b 611 444 500 572 583 492 z "},"Ĥ":{"ha":1042,"x_min":0,"x_max":0,"o":"m 833 0 l 917 0 l 917 972 l 833 972 l 833 576 l 208 576 l 208 972 l 125 972 l 125 0 l 208 0 l 208 497 l 833 497 z m 522 1158 l 640 1028 l 703 1028 l 571 1222 l 474 1222 l 342 1028 l 404 1028 z "},"ĥ":{"ha":801,"x_min":0,"x_max":0,"o":"m 172 1172 l 290 1042 l 353 1042 l 221 1236 l 124 1236 l -8 1042 l 54 1042 z m 197 986 l 118 986 l 118 0 l 197 0 l 197 440 b 417 572 246 524 325 572 b 582 488 486 572 546 540 b 618 332 604 456 618 415 l 618 0 l 697 0 l 697 338 b 643 540 697 442 678 494 b 418 647 592 610 510 647 b 197 549 333 647 247 615 z "},"Ħ":{"ha":1042,"x_min":0,"x_max":0,"o":"m 1042 840 l 917 840 l 917 972 l 833 972 l 833 840 l 208 840 l 208 972 l 125 972 l 125 840 l 0 840 l 0 761 l 125 761 l 125 0 l 208 0 l 208 497 l 833 497 l 833 0 l 917 0 l 917 761 l 1042 761 z m 208 576 l 208 761 l 833 761 l 833 576 z "},"ħ":{"ha":801,"x_min":0,"x_max":0,"o":"m 197 986 l 118 986 l 118 840 l 0 840 l 0 765 l 118 765 l 118 0 l 197 0 l 197 440 b 417 572 246 524 325 572 b 582 488 486 572 546 540 b 618 332 604 456 618 415 l 618 0 l 697 0 l 697 338 b 643 540 697 442 678 494 b 418 647 592 610 510 647 b 197 549 333 647 247 615 l 197 765 l 378 765 l 378 840 l 197 840 z "},"Ĩ":{"ha":333,"x_min":0,"x_max":0,"o":"m 125 0 l 208 0 l 208 972 l 125 972 z m 32 1064 b 82 1126 35 1108 53 1126 b 254 1064 135 1126 183 1064 b 357 1179 322 1064 356 1124 l 301 1194 b 251 1132 299 1150 281 1132 b 79 1194 199 1132 150 1194 b -24 1079 11 1194 -22 1135 z "},"Ī":{"ha":333,"x_min":0,"x_max":0,"o":"m -28 1161 l -28 1092 l 361 1092 l 361 1161 z m 125 0 l 208 0 l 208 972 l 125 972 z "},"ī":{"ha":315,"x_min":0,"x_max":0,"o":"m 118 0 l 197 0 l 197 633 l 118 633 z m -36 869 l -36 800 l 353 800 l 353 869 z "},"Į":{"ha":333,"x_min":0,"x_max":0,"o":"m 208 972 l 125 972 l 125 -4 b 86 -142 108 -29 86 -78 b 246 -306 86 -233 146 -306 b 322 -293 281 -306 313 -297 l 308 -225 b 253 -232 296 -228 276 -232 b 164 -135 213 -232 164 -212 b 208 0 164 -74 192 -24 z "},"į":{"ha":315,"x_min":0,"x_max":0,"o":"m 197 633 l 118 633 l 118 1 b 75 -142 101 -22 75 -74 b 235 -306 75 -233 135 -306 b 311 -293 269 -306 301 -297 l 297 -225 b 242 -232 285 -228 265 -232 b 153 -135 201 -232 153 -212 b 197 0 153 -74 181 -24 z m 88 853 b 157 783 88 814 118 783 b 228 853 196 783 228 814 b 157 924 228 892 196 924 b 88 853 118 924 88 892 z "},"İ":{"ha":333,"x_min":0,"x_max":0,"o":"m 97 1144 b 167 1075 97 1106 128 1075 b 238 1144 206 1075 238 1106 b 167 1215 238 1183 206 1215 b 97 1144 128 1215 97 1183 z m 125 0 l 208 0 l 208 972 l 125 972 z "},"Ĵ":{"ha":604,"x_min":0,"x_max":0,"o":"m 438 1158 l 556 1028 l 618 1028 l 486 1222 l 389 1222 l 257 1028 l 319 1028 z m 0 142 b 236 -14 39 50 131 -14 b 450 99 325 -14 404 29 b 493 271 478 139 493 190 l 493 972 l 410 972 l 410 267 b 386 149 410 207 401 175 b 236 65 356 97 300 65 b 75 172 164 65 101 110 z "},"ĵ":{"ha":375,"x_min":0,"x_max":0,"o":"m 203 867 l 321 736 l 383 736 l 251 931 l 154 931 l 22 736 l 85 736 z m -14 -343 b 32 -347 -3 -346 17 -347 b 207 -271 101 -347 167 -319 b 257 -81 240 -231 257 -179 l 257 633 l 178 633 l 178 -81 b 151 -212 178 -156 169 -186 b 28 -272 125 -251 78 -272 b -7 -269 19 -272 7 -272 z "},"Ķ":{"ha":847,"x_min":0,"x_max":0,"o":"m 819 0 l 297 513 l 778 972 l 667 972 l 208 536 l 208 972 l 125 972 l 125 0 l 208 0 l 208 492 l 708 0 z m 389 -56 l 299 -250 l 361 -250 l 493 -56 z "},"ķ":{"ha":689,"x_min":0,"x_max":0,"o":"m 668 0 l 292 349 l 639 633 l 521 633 l 197 369 l 197 986 l 118 986 l 118 0 l 197 0 l 197 335 l 557 0 z m 319 -56 l 229 -250 l 292 -250 l 424 -56 z "},"Ĺ":{"ha":694,"x_min":0,"x_max":0,"o":"m 208 972 l 125 972 l 125 0 l 667 0 l 667 79 l 208 79 z m 229 1222 l 139 1028 l 201 1028 l 333 1222 z "},"ĺ":{"ha":315,"x_min":0,"x_max":0,"o":"m 214 1236 l 124 1042 l 186 1042 l 318 1236 z m 118 0 l 197 0 l 197 986 l 118 986 z "},"Ļ":{"ha":694,"x_min":0,"x_max":0,"o":"m 208 972 l 125 972 l 125 0 l 667 0 l 667 79 l 208 79 z m 347 -56 l 257 -250 l 319 -250 l 451 -56 z "},"ļ":{"ha":315,"x_min":0,"x_max":0,"o":"m 118 0 l 197 0 l 197 986 l 118 986 z m 118 -56 l 28 -250 l 90 -250 l 222 -56 z "},"Ľ":{"ha":694,"x_min":0,"x_max":0,"o":"m 208 972 l 125 972 l 125 0 l 667 0 l 667 79 l 208 79 z m 410 972 l 319 778 l 382 778 l 514 972 z "},"ľ":{"ha":371,"x_min":0,"x_max":0,"o":"m 343 972 l 253 778 l 315 778 l 447 972 z m 118 0 l 197 0 l 197 986 l 118 986 z "},"Ń":{"ha":1042,"x_min":0,"x_max":0,"o":"m 125 0 l 208 0 l 208 810 l 861 0 l 917 0 l 917 972 l 833 972 l 833 163 l 181 972 l 125 972 z m 576 1222 l 486 1028 l 549 1028 l 681 1222 z "},"ń":{"ha":801,"x_min":0,"x_max":0,"o":"m 468 931 l 378 736 l 440 736 l 572 931 z m 194 633 l 118 633 l 118 0 l 197 0 l 197 440 b 417 572 246 524 325 572 b 582 488 486 572 546 540 b 618 332 604 456 618 415 l 618 0 l 697 0 l 697 338 b 643 540 697 442 678 494 b 418 647 592 610 510 647 b 194 544 329 647 246 613 z "},"Ņ":{"ha":1042,"x_min":0,"x_max":0,"o":"m 125 0 l 208 0 l 208 810 l 861 0 l 917 0 l 917 972 l 833 972 l 833 163 l 181 972 l 125 972 z m 458 -56 l 368 -250 l 431 -250 l 563 -56 z "},"ņ":{"ha":801,"x_min":0,"x_max":0,"o":"m 347 -56 l 257 -250 l 319 -250 l 451 -56 z m 194 633 l 118 633 l 118 0 l 197 0 l 197 440 b 417 572 246 524 325 572 b 582 488 486 572 546 540 b 618 332 604 456 618 415 l 618 0 l 697 0 l 697 338 b 643 540 697 442 678 494 b 418 647 592 610 510 647 b 194 544 329 647 246 613 z "},"Ň":{"ha":1042,"x_min":0,"x_max":0,"o":"m 125 0 l 208 0 l 208 810 l 861 0 l 917 0 l 917 972 l 833 972 l 833 163 l 181 972 l 125 972 z m 403 1236 l 340 1236 l 472 1042 l 569 1042 l 701 1236 l 639 1236 l 521 1106 z "},"ň":{"ha":801,"x_min":0,"x_max":0,"o":"m 294 944 l 232 944 l 364 750 l 461 750 l 593 944 l 531 944 l 413 814 z m 194 633 l 118 633 l 118 0 l 197 0 l 197 440 b 417 572 246 524 325 572 b 582 488 486 572 546 540 b 618 332 604 456 618 415 l 618 0 l 697 0 l 697 338 b 643 540 697 442 678 494 b 418 647 592 610 510 647 b 194 544 329 647 246 613 z "},"Ō":{"ha":1064,"x_min":0,"x_max":0,"o":"m 49 486 b 532 -14 49 203 257 -14 b 1015 486 807 -14 1015 203 b 532 986 1015 769 807 986 b 49 486 257 986 49 769 z m 132 486 b 532 907 132 717 297 907 b 932 486 767 907 932 717 b 532 65 932 256 767 65 b 132 486 297 65 132 256 z m 338 1161 l 338 1092 l 726 1092 l 726 1161 z "},"ō":{"ha":778,"x_min":0,"x_max":0,"o":"m 636 317 b 389 61 636 175 532 61 b 142 317 246 61 142 175 b 389 572 142 458 246 572 b 636 317 532 572 636 458 z m 715 317 b 389 647 715 499 578 647 b 63 317 200 647 63 499 b 389 -14 63 135 200 -14 b 715 317 578 -14 715 135 z m 194 869 l 194 800 l 583 800 l 583 869 z "},"Ő":{"ha":1064,"x_min":0,"x_max":0,"o":"m 49 486 b 532 -14 49 203 257 -14 b 1015 486 807 -14 1015 203 b 532 986 1015 769 807 986 b 49 486 257 986 49 769 z m 132 486 b 532 907 132 717 297 907 b 932 486 767 907 932 717 b 532 65 932 256 767 65 b 132 486 297 65 132 256 z m 506 1222 l 415 1028 l 478 1028 l 610 1222 z m 714 1222 l 624 1028 l 686 1028 l 818 1222 z "},"ő":{"ha":778,"x_min":0,"x_max":0,"o":"m 636 317 b 389 61 636 175 532 61 b 142 317 246 61 142 175 b 389 572 142 458 246 572 b 636 317 532 572 636 458 z m 715 317 b 389 647 715 499 578 647 b 63 317 200 647 63 499 b 389 -14 63 135 200 -14 b 715 317 578 -14 715 135 z m 361 931 l 271 736 l 333 736 l 465 931 z m 569 931 l 479 736 l 542 736 l 674 931 z "},"Ŕ":{"ha":854,"x_min":0,"x_max":0,"o":"m 847 0 l 472 497 b 646 560 553 500 606 522 b 722 735 693 603 722 665 b 646 910 722 804 693 867 b 457 972 603 949 546 972 l 125 972 l 125 0 l 208 0 l 208 497 l 372 497 l 747 0 z m 208 576 l 208 893 l 453 893 b 588 851 522 893 560 878 b 639 735 619 822 639 781 b 588 618 639 689 619 647 b 453 576 560 592 522 576 z m 424 1222 l 333 1028 l 396 1028 l 528 1222 z "},"ŕ":{"ha":486,"x_min":0,"x_max":0,"o":"m 444 644 b 397 647 436 646 408 647 b 197 550 299 647 226 594 l 197 633 l 118 633 l 118 0 l 197 0 l 197 432 b 396 572 231 514 310 572 b 433 571 400 572 425 572 z m 301 931 l 211 736 l 274 736 l 406 931 z "},"Ŗ":{"ha":854,"x_min":0,"x_max":0,"o":"m 847 0 l 472 497 b 646 560 553 500 606 522 b 722 735 693 603 722 665 b 646 910 722 804 693 867 b 457 972 603 949 546 972 l 125 972 l 125 0 l 208 0 l 208 497 l 372 497 l 747 0 z m 208 576 l 208 893 l 453 893 b 588 851 522 893 560 878 b 639 735 619 822 639 781 b 588 618 639 689 619 647 b 453 576 560 592 522 576 z m 396 -56 l 306 -250 l 368 -250 l 500 -56 z "},"ŗ":{"ha":486,"x_min":0,"x_max":0,"o":"m 118 -56 l 28 -250 l 90 -250 l 222 -56 z m 444 644 b 397 647 436 646 408 647 b 197 550 299 647 226 594 l 197 633 l 118 633 l 118 0 l 197 0 l 197 432 b 396 572 231 514 310 572 b 433 571 400 572 425 572 z "},"Ř":{"ha":854,"x_min":0,"x_max":0,"o":"m 847 0 l 472 497 b 646 560 553 500 606 522 b 722 735 693 603 722 665 b 646 910 722 804 693 867 b 457 972 603 949 546 972 l 125 972 l 125 0 l 208 0 l 208 497 l 372 497 l 747 0 z m 208 576 l 208 893 l 453 893 b 588 851 522 893 560 878 b 639 735 619 822 639 781 b 588 618 639 689 619 647 b 453 576 560 592 522 576 z m 285 1236 l 222 1236 l 354 1042 l 451 1042 l 583 1236 l 521 1236 l 403 1106 z "},"ř":{"ha":486,"x_min":0,"x_max":0,"o":"m 183 944 l 121 944 l 253 750 l 350 750 l 482 944 l 419 944 l 301 814 z m 444 644 b 397 647 436 646 408 647 b 197 550 299 647 226 594 l 197 633 l 118 633 l 118 0 l 197 0 l 197 432 b 396 572 231 514 310 572 b 433 571 400 572 425 572 z "},"Ś":{"ha":717,"x_min":0,"x_max":0,"o":"m 414 1222 l 324 1028 l 386 1028 l 518 1222 z m 49 150 b 371 -14 132 40 242 -14 b 654 247 529 -14 654 93 b 507 482 654 360 588 432 b 172 735 368 568 172 588 b 368 907 172 840 260 907 b 561 828 449 907 504 878 l 614 889 b 365 986 569 928 490 986 b 89 731 210 986 89 882 b 221 531 89 632 149 575 b 571 247 363 443 571 424 b 371 65 571 135 468 65 b 110 204 243 65 167 131 z "},"ś":{"ha":590,"x_min":0,"x_max":0,"o":"m 56 76 b 301 -14 111 25 196 -14 b 521 176 421 -14 521 58 b 156 464 521 399 156 324 b 296 572 156 538 229 572 b 454 521 361 572 400 556 l 496 586 b 292 647 449 618 378 647 b 76 463 185 647 76 578 b 442 172 76 246 442 335 b 296 61 442 106 375 61 b 104 138 225 61 158 92 z m 343 931 l 253 736 l 315 736 l 447 931 z "},"Ŝ":{"ha":717,"x_min":0,"x_max":0,"o":"m 365 1158 l 483 1028 l 546 1028 l 414 1222 l 317 1222 l 185 1028 l 247 1028 z m 49 150 b 371 -14 132 40 242 -14 b 654 247 529 -14 654 93 b 507 482 654 360 588 432 b 172 735 368 568 172 588 b 368 907 172 840 260 907 b 561 828 449 907 504 878 l 614 889 b 365 986 569 928 490 986 b 89 731 210 986 89 882 b 221 531 89 632 149 575 b 571 247 363 443 571 424 b 371 65 571 135 468 65 b 110 204 243 65 167 131 z "},"ŝ":{"ha":590,"x_min":0,"x_max":0,"o":"m 56 76 b 301 -14 111 25 196 -14 b 521 176 421 -14 521 58 b 156 464 521 399 156 324 b 296 572 156 538 229 572 b 454 521 361 572 400 556 l 496 586 b 292 647 449 618 378 647 b 76 463 185 647 76 578 b 442 172 76 246 442 335 b 296 61 442 106 375 61 b 104 138 225 61 158 92 z m 299 867 l 417 736 l 479 736 l 347 931 l 250 931 l 118 736 l 181 736 z "},"Ş":{"ha":717,"x_min":0,"x_max":0,"o":"m 275 -194 l 379 -194 l 410 -11 b 654 247 549 4 654 106 b 507 482 654 360 588 432 b 172 735 368 568 172 588 b 368 907 172 840 260 907 b 561 828 449 907 504 878 l 614 889 b 365 986 569 928 490 986 b 89 731 210 986 89 882 b 221 531 89 632 149 575 b 571 247 363 443 571 424 b 371 65 571 135 468 65 b 110 204 243 65 167 131 l 49 150 b 342 -12 125 49 225 -6 z "},"ş":{"ha":590,"x_min":0,"x_max":0,"o":"m 204 -194 l 308 -194 l 339 -11 b 521 176 440 1 521 71 b 156 464 521 399 156 324 b 296 572 156 538 229 572 b 454 521 361 572 400 556 l 496 586 b 292 647 449 618 378 647 b 76 463 185 647 76 578 b 442 172 76 246 442 335 b 296 61 442 106 375 61 b 104 138 225 61 158 92 l 56 76 b 271 -12 106 29 179 -6 z "},"Ţ":{"ha":694,"x_min":0,"x_max":0,"o":"m 28 972 l 28 893 l 306 893 l 306 0 l 389 0 l 389 893 l 667 893 l 667 972 z m 306 -56 l 215 -250 l 278 -250 l 410 -56 z "},"ţ":{"ha":536,"x_min":0,"x_max":0,"o":"m 303 -56 l 213 -250 l 275 -250 l 407 -56 z m 472 633 l 257 633 l 257 806 l 178 806 l 178 633 l 0 633 l 0 558 l 178 558 l 178 214 b 221 58 178 139 193 93 b 390 -14 264 4 332 -14 b 472 -3 415 -14 451 -10 l 458 69 b 390 61 435 63 408 61 b 285 106 343 61 307 78 b 257 211 268 126 257 154 l 257 558 l 472 558 z "},"Ť":{"ha":694,"x_min":0,"x_max":0,"o":"m 229 1236 l 167 1236 l 299 1042 l 396 1042 l 528 1236 l 465 1236 l 347 1106 z m 28 972 l 28 893 l 306 893 l 306 0 l 389 0 l 389 893 l 667 893 l 667 972 z "},"ť":{"ha":535,"x_min":0,"x_max":0,"o":"m 403 972 l 313 778 l 375 778 l 507 972 z m 472 633 l 257 633 l 257 806 l 178 806 l 178 633 l 0 633 l 0 558 l 178 558 l 178 214 b 221 58 178 139 193 93 b 390 -14 264 4 332 -14 b 472 -3 415 -14 451 -10 l 458 69 b 390 61 435 63 408 61 b 285 106 343 61 307 78 b 257 211 268 126 257 154 l 257 558 l 472 558 z "},"Ū":{"ha":1000,"x_min":0,"x_max":0,"o":"m 306 1161 l 306 1092 l 694 1092 l 694 1161 z m 500 -14 b 832 163 640 -14 764 56 b 889 389 868 219 889 286 l 889 972 l 806 972 l 806 385 b 763 204 806 300 790 249 b 500 65 708 119 611 65 b 238 204 389 65 292 119 b 194 385 210 249 194 300 l 194 972 l 111 972 l 111 389 b 168 163 111 286 132 219 b 500 -14 236 56 360 -14 z "},"ū":{"ha":788,"x_min":0,"x_max":0,"o":"m 193 869 l 193 800 l 582 800 l 582 869 z m 593 0 l 669 0 l 669 633 l 590 633 l 590 193 b 379 61 549 114 465 61 b 219 144 310 61 253 94 b 183 308 197 178 183 219 l 183 633 l 104 633 l 104 296 b 142 117 104 211 118 160 b 379 -14 188 36 275 -14 b 593 86 467 -14 549 28 z "},"Ŭ":{"ha":1000,"x_min":0,"x_max":0,"o":"m 604 1236 b 500 1132 604 1179 557 1132 b 396 1236 443 1132 396 1179 l 326 1236 b 500 1063 326 1140 404 1063 b 674 1236 596 1063 674 1140 z m 500 -14 b 832 163 640 -14 764 56 b 889 389 868 219 889 286 l 889 972 l 806 972 l 806 385 b 763 204 806 300 790 249 b 500 65 708 119 611 65 b 238 204 389 65 292 119 b 194 385 210 249 194 300 l 194 972 l 111 972 l 111 389 b 168 163 111 286 132 219 b 500 -14 236 56 360 -14 z "},"ŭ":{"ha":788,"x_min":0,"x_max":0,"o":"m 492 944 b 388 840 492 888 444 840 b 283 944 331 840 283 888 l 214 944 b 388 771 214 849 292 771 b 561 944 483 771 561 849 z m 593 0 l 669 0 l 669 633 l 590 633 l 590 193 b 379 61 549 114 465 61 b 219 144 310 61 253 94 b 183 308 197 178 183 219 l 183 633 l 104 633 l 104 296 b 142 117 104 211 118 160 b 379 -14 188 36 275 -14 b 593 86 467 -14 549 28 z "},"Ů":{"ha":1000,"x_min":0,"x_max":0,"o":"m 500 -14 b 832 163 640 -14 764 56 b 889 389 868 219 889 286 l 889 972 l 806 972 l 806 385 b 763 204 806 300 790 249 b 500 65 708 119 611 65 b 238 204 389 65 292 119 b 194 385 210 249 194 300 l 194 972 l 111 972 l 111 389 b 168 163 111 286 132 219 b 500 -14 236 56 360 -14 z m 375 1139 b 500 1014 375 1069 431 1014 b 625 1139 569 1014 625 1069 b 500 1264 625 1208 569 1264 b 375 1139 431 1264 375 1208 z m 431 1139 b 500 1208 431 1178 461 1208 b 569 1139 539 1208 569 1178 b 500 1069 569 1100 539 1069 b 431 1139 461 1069 431 1100 z "},"ů":{"ha":788,"x_min":0,"x_max":0,"o":"m 263 847 b 388 722 263 778 318 722 b 513 847 457 722 513 778 b 388 972 513 917 457 972 b 263 847 318 972 263 917 z m 318 847 b 388 917 318 886 349 917 b 457 847 426 917 457 886 b 388 778 457 808 426 778 b 318 847 349 778 318 808 z m 593 0 l 669 0 l 669 633 l 590 633 l 590 193 b 379 61 549 114 465 61 b 219 144 310 61 253 94 b 183 308 197 178 183 219 l 183 633 l 104 633 l 104 296 b 142 117 104 211 118 160 b 379 -14 188 36 275 -14 b 593 86 467 -14 549 28 z "},"Ű":{"ha":1000,"x_min":0,"x_max":0,"o":"m 450 1222 l 360 1028 l 422 1028 l 554 1222 z m 658 1222 l 568 1028 l 631 1028 l 763 1222 z m 500 -14 b 832 163 640 -14 764 56 b 889 389 868 219 889 286 l 889 972 l 806 972 l 806 385 b 763 204 806 300 790 249 b 500 65 708 119 611 65 b 238 204 389 65 292 119 b 194 385 210 249 194 300 l 194 972 l 111 972 l 111 389 b 168 163 111 286 132 219 b 500 -14 236 56 360 -14 z "},"ű":{"ha":788,"x_min":0,"x_max":0,"o":"m 342 931 l 251 736 l 314 736 l 446 931 z m 550 931 l 460 736 l 522 736 l 654 931 z m 593 0 l 669 0 l 669 633 l 590 633 l 590 193 b 379 61 549 114 465 61 b 219 144 310 61 253 94 b 183 308 197 178 183 219 l 183 633 l 104 633 l 104 296 b 142 117 104 211 118 160 b 379 -14 188 36 275 -14 b 593 86 467 -14 549 28 z "},"Ų":{"ha":1000,"x_min":0,"x_max":0,"o":"m 500 -14 b 535 -12 511 -14 518 -14 b 500 -142 519 -39 500 -83 b 660 -306 500 -233 560 -306 b 736 -293 694 -306 726 -297 l 722 -225 b 667 -232 710 -228 690 -232 b 578 -135 626 -232 578 -212 b 626 6 578 -67 611 -14 b 832 163 713 33 785 89 b 889 389 868 219 889 286 l 889 972 l 806 972 l 806 385 b 763 204 806 300 790 249 b 500 65 708 119 611 65 b 238 204 389 65 292 119 b 194 385 210 249 194 300 l 194 972 l 111 972 l 111 389 b 168 163 111 286 132 219 b 500 -14 236 56 360 -14 z "},"ų":{"ha":788,"x_min":0,"x_max":0,"o":"m 593 0 l 669 0 l 669 633 l 590 633 l 590 193 b 379 61 549 114 465 61 b 219 144 310 61 253 94 b 183 308 197 178 183 219 l 183 633 l 104 633 l 104 296 b 142 117 104 211 118 160 b 379 -14 188 36 275 -14 b 397 -12 385 -14 392 -14 b 365 -142 382 -40 365 -85 b 525 -306 365 -233 425 -306 b 601 -293 560 -306 592 -297 l 588 -225 b 532 -232 575 -228 556 -232 b 443 -135 492 -232 443 -212 b 496 11 443 -62 482 -4 b 593 86 535 29 569 56 z "},"Ŵ":{"ha":1308,"x_min":0,"x_max":0,"o":"m 626 972 l 367 168 l 106 972 l 21 972 l 340 0 l 396 0 l 654 799 l 913 0 l 968 0 l 1288 972 l 1203 972 l 942 168 l 682 972 z m 654 1158 l 772 1028 l 835 1028 l 703 1222 l 606 1222 l 474 1028 l 536 1028 z "},"ŵ":{"ha":1058,"x_min":0,"x_max":0,"o":"m 529 504 l 735 0 l 786 0 l 1031 633 l 949 633 l 757 136 l 554 633 l 504 633 l 301 136 l 110 633 l 28 633 l 272 0 l 324 0 z m 529 867 l 647 736 l 710 736 l 578 931 l 481 931 l 349 736 l 411 736 z "},"Ŷ":{"ha":778,"x_min":0,"x_max":0,"o":"m 764 972 l 669 972 l 389 538 l 108 972 l 14 972 l 347 457 l 347 0 l 431 0 l 431 457 z m 389 1158 l 507 1028 l 569 1028 l 438 1222 l 340 1222 l 208 1028 l 271 1028 z "},"ŷ":{"ha":676,"x_min":0,"x_max":0,"o":"m 339 867 l 457 736 l 519 736 l 388 931 l 290 931 l 158 736 l 221 736 z m 217 -333 l 656 633 l 571 633 l 347 142 l 110 633 l 21 633 l 307 51 l 133 -333 z "},"Ź":{"ha":813,"x_min":0,"x_max":0,"o":"m 465 1222 l 375 1028 l 438 1028 l 569 1222 z m 56 51 l 56 0 l 764 0 l 764 79 l 171 79 l 736 921 l 736 972 l 97 972 l 97 893 l 624 893 z "},"ź":{"ha":653,"x_min":0,"x_max":0,"o":"m 56 47 l 56 0 l 611 0 l 611 75 l 174 75 l 597 586 l 597 633 l 90 633 l 90 558 l 478 558 z m 403 931 l 313 736 l 375 736 l 507 931 z "},"Ż":{"ha":813,"x_min":0,"x_max":0,"o":"m 56 51 l 56 0 l 764 0 l 764 79 l 171 79 l 736 921 l 736 972 l 97 972 l 97 893 l 624 893 z m 342 1144 b 411 1075 342 1106 372 1075 b 482 1144 450 1075 482 1106 b 411 1215 482 1183 450 1215 b 342 1144 372 1215 342 1183 z "},"ż":{"ha":653,"x_min":0,"x_max":0,"o":"m 56 47 l 56 0 l 611 0 l 611 75 l 174 75 l 597 586 l 597 633 l 90 633 l 90 558 l 478 558 z m 283 853 b 353 783 283 814 314 783 b 424 853 392 783 424 814 b 353 924 424 892 392 924 b 283 853 314 924 283 892 z "},"Ș":{"ha":717,"x_min":0,"x_max":0,"o":"m 49 150 b 371 -14 132 40 242 -14 b 654 247 529 -14 654 93 b 507 482 654 360 588 432 b 172 735 368 568 172 588 b 368 907 172 840 260 907 b 561 828 449 907 504 878 l 614 889 b 365 986 569 928 490 986 b 89 731 210 986 89 882 b 221 531 89 632 149 575 b 571 247 363 443 571 424 b 371 65 571 135 468 65 b 110 204 243 65 167 131 z "},"ș":{"ha":590,"x_min":0,"x_max":0,"o":"m 56 76 b 301 -14 111 25 196 -14 b 521 176 421 -14 521 58 b 156 464 521 399 156 324 b 296 572 156 538 229 572 b 454 521 361 572 400 556 l 496 586 b 292 647 449 618 378 647 b 76 463 185 647 76 578 b 442 172 76 246 442 335 b 296 61 442 106 375 61 b 104 138 225 61 158 92 z "},"Ẁ":{"ha":1308,"x_min":0,"x_max":0,"o":"m 626 972 l 367 168 l 106 972 l 21 972 l 340 0 l 396 0 l 654 799 l 913 0 l 968 0 l 1288 972 l 1203 972 l 942 168 l 682 972 z m 488 1222 l 619 1028 l 682 1028 l 592 1222 z "},"ẁ":{"ha":1058,"x_min":0,"x_max":0,"o":"m 529 504 l 735 0 l 786 0 l 1031 633 l 949 633 l 757 136 l 554 633 l 504 633 l 301 136 l 110 633 l 28 633 l 272 0 l 324 0 z m 360 931 l 492 736 l 554 736 l 464 931 z "},"ĕ":{"ha":722,"x_min":0,"x_max":0,"o":"m 483 944 b 379 840 483 888 436 840 b 275 944 322 840 275 888 l 206 944 b 379 771 206 849 283 771 b 553 944 475 771 553 849 z m 365 572 b 578 382 475 572 561 493 l 146 382 b 365 572 169 492 253 572 z m 583 156 b 381 61 533 94 464 61 b 142 310 235 61 147 175 l 658 310 b 660 338 660 322 660 332 b 365 647 660 514 535 647 b 63 317 186 647 63 499 b 381 -14 63 119 203 -14 b 639 103 501 -14 592 43 z "},"Ĕ":{"ha":722,"x_min":0,"x_max":0,"o":"m 493 1236 b 389 1132 493 1179 446 1132 b 285 1236 332 1132 285 1179 l 215 1236 b 389 1063 215 1140 293 1063 b 563 1236 485 1063 563 1140 z m 653 893 l 653 972 l 125 972 l 125 0 l 667 0 l 667 79 l 208 79 l 208 497 l 556 497 l 556 576 l 208 576 l 208 893 z "},"ĩ":{"ha":315,"x_min":0,"x_max":0,"o":"m 118 0 l 197 0 l 197 633 l 118 633 z m 24 772 b 74 835 26 817 44 835 b 246 772 126 835 175 772 b 349 888 314 772 347 832 l 293 903 b 243 840 290 858 272 840 b 71 903 190 840 142 903 b -32 788 3 903 -31 843 z "},"Ŀ":{"ha":694,"x_min":0,"x_max":0,"o":"m 208 972 l 125 972 l 125 0 l 667 0 l 667 79 l 208 79 z m 347 486 b 417 417 347 447 378 417 b 488 486 456 417 488 447 b 417 557 488 525 456 557 b 347 486 378 557 347 525 z "},"ŀ":{"ha":315,"x_min":0,"x_max":0,"o":"m 118 0 l 197 0 l 197 986 l 118 986 z m 267 486 b 336 417 267 447 297 417 b 407 486 375 417 407 447 b 336 557 407 525 375 557 b 267 486 297 557 267 525 z "},"Ŏ":{"ha":1064,"x_min":0,"x_max":0,"o":"m 636 1236 b 532 1132 636 1179 589 1132 b 428 1236 475 1132 428 1179 l 358 1236 b 532 1063 358 1140 436 1063 b 706 1236 628 1063 706 1140 z m 49 486 b 532 -14 49 203 257 -14 b 1015 486 807 -14 1015 203 b 532 986 1015 769 807 986 b 49 486 257 986 49 769 z m 132 486 b 532 907 132 717 297 907 b 932 486 767 907 932 717 b 532 65 932 256 767 65 b 132 486 297 65 132 256 z "},"ŏ":{"ha":778,"x_min":0,"x_max":0,"o":"m 636 317 b 389 61 636 175 532 61 b 142 317 246 61 142 175 b 389 572 142 458 246 572 b 636 317 532 572 636 458 z m 715 317 b 389 647 715 499 578 647 b 63 317 200 647 63 499 b 389 -14 63 135 200 -14 b 715 317 578 -14 715 135 z m 493 944 b 389 840 493 888 446 840 b 285 944 332 840 285 888 l 215 944 b 389 771 215 849 293 771 b 563 944 485 771 563 849 z "},"Ŧ":{"ha":694,"x_min":0,"x_max":0,"o":"m 611 497 l 611 576 l 389 576 l 389 893 l 667 893 l 667 972 l 28 972 l 28 893 l 306 893 l 306 576 l 83 576 l 83 497 l 306 497 l 306 0 l 389 0 l 389 497 z "},"ŧ":{"ha":536,"x_min":0,"x_max":0,"o":"m 472 633 l 257 633 l 257 806 l 178 806 l 178 633 l 0 633 l 0 558 l 178 558 l 178 364 l 0 364 l 0 289 l 178 289 l 178 214 b 221 58 178 139 193 93 b 390 -14 264 4 332 -14 b 472 -3 415 -14 451 -10 l 458 69 b 390 61 435 63 408 61 b 285 106 343 61 307 78 b 257 211 268 126 257 154 l 257 289 l 472 289 l 472 364 l 257 364 l 257 558 l 472 558 z "},"Ũ":{"ha":1000,"x_min":0,"x_max":0,"o":"m 500 -14 b 832 163 640 -14 764 56 b 889 389 868 219 889 286 l 889 972 l 806 972 l 806 385 b 763 204 806 300 790 249 b 500 65 708 119 611 65 b 238 204 389 65 292 119 b 194 385 210 249 194 300 l 194 972 l 111 972 l 111 389 b 168 163 111 286 132 219 b 500 -14 236 56 360 -14 z m 365 1064 b 415 1126 368 1108 386 1126 b 588 1064 468 1126 517 1064 b 690 1179 656 1064 689 1124 l 635 1194 b 585 1132 632 1150 614 1132 b 413 1194 532 1132 483 1194 b 310 1079 344 1194 311 1135 z "},"ũ":{"ha":788,"x_min":0,"x_max":0,"o":"m 590 0 l 669 0 l 669 633 l 590 633 l 590 193 b 379 61 549 114 465 61 b 219 144 310 61 253 94 b 183 308 197 178 183 219 l 183 633 l 104 633 l 104 299 b 142 119 104 214 118 163 b 379 -14 188 39 275 -14 b 590 83 463 -14 544 26 z m 253 772 b 303 835 256 817 274 835 b 475 772 356 835 404 772 b 578 888 543 772 576 832 l 522 903 b 472 840 519 858 501 840 b 300 903 419 840 371 903 b 197 788 232 903 199 843 z "},"Ĭ":{"ha":333,"x_min":0,"x_max":0,"o":"m 125 0 l 208 0 l 208 972 l 125 972 z m 271 1236 b 167 1132 271 1179 224 1132 b 63 1236 110 1132 63 1179 l -7 1236 b 167 1063 -7 1140 71 1063 b 340 1236 263 1063 340 1140 z "},"ĭ":{"ha":315,"x_min":0,"x_max":0,"o":"m 118 0 l 197 0 l 197 633 l 118 633 z m 263 944 b 158 840 263 888 215 840 b 54 944 101 840 54 888 l -15 944 b 158 771 -15 849 63 771 b 332 944 254 771 332 849 z "},"Ĳ":{"ha":938,"x_min":0,"x_max":0,"o":"m 125 0 l 208 0 l 208 972 l 125 972 z m 333 142 b 569 -14 372 50 464 -14 b 783 99 658 -14 738 29 b 826 271 811 139 826 190 l 826 972 l 743 972 l 743 267 b 719 149 743 207 735 175 b 569 65 689 97 633 65 b 408 172 497 65 435 110 z "},"ĳ":{"ha":690,"x_min":0,"x_max":0,"o":"m 118 0 l 197 0 l 197 633 l 118 633 z m 88 853 b 157 783 88 814 118 783 b 228 853 196 783 228 814 b 157 924 228 892 196 924 b 88 853 118 924 88 892 z m 301 -343 b 347 -347 313 -346 332 -347 b 522 -271 417 -347 482 -319 b 572 -81 556 -231 572 -179 l 572 633 l 493 633 l 493 -81 b 467 -212 493 -156 485 -186 b 343 -272 440 -251 393 -272 b 308 -269 335 -272 322 -272 z m 463 853 b 532 783 463 814 493 783 b 603 853 571 783 603 814 b 532 924 603 892 571 924 b 463 853 493 924 463 892 z "},"ĸ":{"ha":689,"x_min":0,"x_max":0,"o":"m 668 0 l 292 349 l 639 633 l 521 633 l 197 369 l 197 633 l 118 633 l 118 0 l 197 0 l 197 335 l 557 0 z "},"ŉ":{"ha":801,"x_min":0,"x_max":0,"o":"m 208 972 l 118 778 l 181 778 l 313 972 z m 194 633 l 118 633 l 118 0 l 197 0 l 197 440 b 417 572 246 524 325 572 b 582 488 486 572 546 540 b 618 332 604 456 618 415 l 618 0 l 697 0 l 697 338 b 643 540 697 442 678 494 b 418 647 592 610 510 647 b 194 544 329 647 246 613 z "},"Ŋ":{"ha":1042,"x_min":0,"x_max":0,"o":"m 424 -192 b 660 -347 463 -283 554 -347 b 874 -235 749 -347 828 -304 b 917 -62 901 -194 917 -143 l 917 972 l 833 972 l 833 163 l 181 972 l 125 972 l 125 0 l 208 0 l 208 810 l 833 35 l 833 -67 b 810 -185 833 -126 825 -158 b 660 -268 779 -236 724 -268 b 499 -161 588 -268 525 -224 z "},"ŋ":{"ha":801,"x_min":0,"x_max":0,"o":"m 194 633 l 118 633 l 118 0 l 197 0 l 197 440 b 417 572 246 524 325 572 b 582 488 486 572 546 540 b 618 332 604 456 618 415 l 618 -81 b 592 -212 618 -156 610 -186 b 468 -272 565 -251 518 -272 b 389 -253 433 -272 413 -264 l 357 -322 b 472 -347 390 -340 425 -347 b 647 -269 542 -347 607 -318 b 697 -81 681 -229 697 -179 l 697 338 b 643 540 697 442 678 494 b 418 647 592 610 510 647 b 194 544 329 647 246 613 z "},"ſ":{"ha":529,"x_min":0,"x_max":0,"o":"m 260 733 b 290 863 260 808 272 836 b 414 925 318 903 363 925 b 497 904 444 925 469 917 l 529 975 b 415 1000 494 992 456 1000 b 235 919 343 1000 278 971 b 181 729 201 879 181 826 l 181 0 l 260 0 z "},"Ə":{"ha":1003,"x_min":0,"x_max":0,"o":"m 496 65 b 133 418 311 65 151 203 l 868 418 b 496 65 836 213 696 65 z m 51 497 b 49 454 49 478 49 463 b 496 -14 49 188 240 -14 b 954 486 767 -14 954 211 b 479 986 954 760 772 986 b 74 806 290 986 151 890 l 132 747 b 479 907 218 843 336 907 b 871 497 722 907 864 722 z "},"Ƶ":{"ha":813,"x_min":0,"x_max":0,"o":"m 181 576 l 181 497 l 356 497 l 56 51 l 56 0 l 764 0 l 764 79 l 171 79 l 451 497 l 681 497 l 681 576 l 504 576 l 736 921 l 736 972 l 97 972 l 97 893 l 624 893 l 410 576 z "},"ƶ":{"ha":653,"x_min":0,"x_max":0,"o":"m 118 364 l 118 289 l 254 289 l 56 47 l 56 0 l 611 0 l 611 75 l 174 75 l 350 289 l 569 289 l 569 364 l 413 364 l 597 586 l 597 633 l 90 633 l 90 558 l 478 558 l 317 364 z "},"Ǻ":{"ha":908,"x_min":0,"x_max":0,"o":"m 329 1139 b 454 1014 329 1069 385 1014 b 579 1139 524 1014 579 1069 b 454 1264 579 1208 524 1264 b 329 1139 385 1264 329 1208 z m 385 1139 b 454 1208 385 1178 415 1208 b 524 1139 493 1208 524 1178 b 454 1069 524 1100 493 1069 b 385 1139 415 1069 385 1100 z m 515 1506 l 425 1311 l 488 1311 l 619 1506 z m 426 972 l 7 0 l 90 0 l 218 293 l 690 293 l 818 0 l 901 0 l 482 972 z m 454 842 l 656 372 l 251 372 z "},"ǻ":{"ha":808,"x_min":0,"x_max":0,"o":"m 281 847 b 406 722 281 778 336 722 b 531 847 475 722 531 778 b 406 972 531 917 475 972 b 281 847 336 972 281 917 z m 336 847 b 406 917 336 886 367 917 b 475 847 444 917 475 886 b 406 778 475 808 444 778 b 336 847 367 778 336 808 z m 467 1214 l 376 1019 l 439 1019 l 571 1214 z m 690 0 l 690 633 l 614 633 l 614 546 b 382 647 557 610 474 647 b 181 576 306 647 233 619 b 63 317 108 515 63 422 b 197 46 63 203 114 104 b 386 -14 260 1 326 -14 b 614 93 485 -14 567 29 l 614 0 z m 611 200 b 385 61 561 114 478 61 b 242 108 331 61 282 81 b 142 317 181 151 142 229 b 231 518 142 399 175 472 b 383 572 275 554 331 572 b 611 444 500 572 583 492 z "},"Ǽ":{"ha":1208,"x_min":0,"x_max":0,"o":"m 669 1222 l 579 1028 l 642 1028 l 774 1222 z m 1139 893 l 1139 972 l 553 972 l -28 0 l 64 0 l 240 293 l 611 293 l 611 0 l 1153 0 l 1153 79 l 694 79 l 694 497 l 1042 497 l 1042 576 l 694 576 l 694 893 z m 288 372 l 611 917 l 611 372 z "},"ǽ":{"ha":1271,"x_min":0,"x_max":0,"o":"m 701 931 l 611 736 l 674 736 l 806 931 z m 688 0 l 688 103 b 929 -14 744 29 828 -14 b 1188 103 1050 -14 1140 43 l 1132 156 b 929 61 1082 94 1013 61 b 690 310 783 61 696 175 l 1207 310 b 1208 338 1208 322 1208 332 b 914 647 1208 514 1083 647 b 688 536 817 647 739 604 l 688 633 l 614 633 l 614 546 b 382 647 557 610 474 647 b 181 576 306 647 233 619 b 63 317 108 515 63 422 b 197 46 63 203 114 104 b 386 -14 260 1 326 -14 b 614 93 485 -14 567 29 l 614 0 z m 611 200 b 385 61 561 114 478 61 b 242 108 331 61 282 81 b 142 317 181 151 142 229 b 231 518 142 399 175 472 b 383 572 275 554 331 572 b 611 444 500 572 583 492 z m 914 572 b 1126 382 1024 572 1110 493 l 694 382 b 914 572 718 492 801 572 z "},"Ǿ":{"ha":1064,"x_min":0,"x_max":0,"o":"m 594 1222 l 503 1028 l 567 1028 l 700 1222 z m 49 486 b 217 101 49 329 113 192 l 136 -14 l 226 -14 l 276 57 b 532 -14 350 11 436 -14 b 1015 486 807 -14 1015 203 b 846 871 1015 643 950 781 l 928 986 l 836 986 l 786 915 b 532 986 714 960 626 986 b 49 486 257 986 49 769 z m 932 486 b 532 65 932 256 767 65 b 322 124 453 65 382 86 l 799 803 b 932 486 882 725 932 613 z m 132 486 b 532 907 132 717 297 907 b 740 849 610 907 681 886 l 264 169 b 132 486 181 247 132 360 z "},"ǿ":{"ha":778,"x_min":0,"x_max":0,"o":"m 453 931 l 363 736 l 425 736 l 557 931 z m 715 317 b 608 564 715 414 675 503 l 667 647 l 578 647 l 549 606 b 389 647 503 632 449 647 b 63 317 200 647 63 499 b 168 69 63 218 101 129 l 111 -14 l 200 -14 l 228 26 b 389 -14 275 1 329 -14 b 715 317 578 -14 715 135 z m 142 317 b 389 572 142 458 246 572 b 503 544 431 572 469 563 l 215 131 b 142 317 169 178 142 243 z m 636 317 b 389 61 636 175 532 61 b 275 88 347 61 308 71 l 561 501 b 636 317 608 456 636 389 z "},"ə":{"ha":722,"x_min":0,"x_max":0,"o":"m 357 61 b 144 251 247 61 161 140 l 576 251 b 357 61 553 142 469 61 z m 139 478 b 342 572 189 539 258 572 b 581 324 488 572 575 458 l 64 324 b 63 296 63 311 63 301 b 357 -14 63 119 188 -14 b 660 317 536 -14 660 135 b 342 647 660 514 519 647 b 83 531 221 647 131 590 z "},"Ẃ":{"ha":1308,"x_min":0,"x_max":0,"o":"m 626 972 l 367 168 l 106 972 l 21 972 l 340 0 l 396 0 l 654 799 l 913 0 l 968 0 l 1288 972 l 1203 972 l 942 168 l 682 972 z m 717 1222 l 626 1028 l 689 1028 l 821 1222 z "},"ẃ":{"ha":1058,"x_min":0,"x_max":0,"o":"m 529 504 l 735 0 l 786 0 l 1031 633 l 949 633 l 757 136 l 554 633 l 504 633 l 301 136 l 110 633 l 28 633 l 272 0 l 324 0 z m 594 931 l 504 736 l 567 736 l 699 931 z "},"ȷ":{"ha":375,"x_min":0,"x_max":0,"o":"m -14 -343 b 32 -347 -3 -346 17 -347 b 207 -271 101 -347 167 -319 b 257 -81 240 -231 257 -179 l 257 633 l 178 633 l 178 -81 b 151 -212 178 -156 169 -186 b 28 -272 125 -251 78 -272 b -7 -269 19 -272 7 -272 z "},"Ẅ":{"ha":1308,"x_min":0,"x_max":0,"o":"m 626 972 l 367 168 l 106 972 l 21 972 l 340 0 l 396 0 l 654 799 l 913 0 l 968 0 l 1288 972 l 1203 972 l 942 168 l 682 972 z m 697 1117 b 767 1047 697 1078 728 1047 b 838 1117 806 1047 838 1078 b 767 1188 838 1156 806 1188 b 697 1117 728 1188 697 1156 z m 471 1117 b 540 1047 471 1078 501 1047 b 611 1117 579 1047 611 1078 b 540 1188 611 1156 579 1188 b 471 1117 501 1188 471 1156 z "},"ẅ":{"ha":1058,"x_min":0,"x_max":0,"o":"m 529 504 l 735 0 l 786 0 l 1031 633 l 949 633 l 757 136 l 554 633 l 504 633 l 301 136 l 110 633 l 28 633 l 272 0 l 324 0 z m 572 825 b 642 756 572 786 603 756 b 713 825 681 756 713 786 b 642 896 713 864 681 896 b 572 825 603 896 572 864 z m 346 825 b 415 756 346 786 376 756 b 486 825 454 756 486 786 b 415 896 486 864 454 896 b 346 825 376 896 346 864 z "},"Ẋ":{"ha":847,"x_min":0,"x_max":0,"o":"m 354 1144 b 424 1075 354 1106 385 1075 b 494 1144 463 1075 494 1106 b 424 1215 494 1183 463 1215 b 354 1144 385 1215 354 1183 z m 122 0 l 424 471 l 725 0 l 819 0 l 478 533 l 758 972 l 665 972 l 424 596 l 182 972 l 89 972 l 369 533 l 28 0 z "},"ẋ":{"ha":642,"x_min":0,"x_max":0,"o":"m 528 0 l 621 0 l 376 340 l 586 633 l 493 633 l 321 393 l 149 633 l 56 633 l 265 340 l 21 0 l 114 0 l 321 288 z m 251 853 b 321 783 251 814 282 783 b 392 853 360 783 392 814 b 321 924 392 892 360 924 b 251 853 282 924 251 892 z "},"Ỳ":{"ha":778,"x_min":0,"x_max":0,"o":"m 764 972 l 669 972 l 389 538 l 108 972 l 14 972 l 347 457 l 347 0 l 431 0 l 431 457 z m 228 1222 l 360 1028 l 422 1028 l 332 1222 z "},"ỳ":{"ha":676,"x_min":0,"x_max":0,"o":"m 182 931 l 314 736 l 376 736 l 286 931 z m 217 -333 l 656 633 l 571 633 l 347 142 l 110 633 l 21 633 l 307 51 l 133 -333 z "}}}
